<svg id="Layer_1" data-name="Layer 1" xmlns="http://www.w3.org/2000/svg" viewBox="0 0 1657.38 497.41" fill="#4a9a96">
    <title>80.LVL</title>
    <path d="M406.46,442.17c-3.54-7.56-3.4-8.43,2.11-13.73,15.12-14.54,20.26-44.15,10.77-62.93a36.64,36.64,0,0,0-17.75,13.16c-4.26,6-7.44,12.77-10.67,18.45l-22.33-3.63c6.88-6.06,14.27-12,21-18.58,23.95-23.64,47.62-47.58,71.5-71.3,15.26-15.18,15.41-37.38.16-52.57-14.51-14.47-28.92-29-43.54-43.4a12.13,12.13,0,0,1-4-9.57c.13-53.48.07-107,.11-160.46,0-9.33-2.41-17.79-8.52-25A35.65,35.65,0,0,0,365.79,2.15a35.25,35.25,0,0,0-23.53,33.32c-.17,27-.05,54-.06,81v5.92c-16.8-16.85-43.45-17.38-59.42,6-6.47-10.08-15.22-16.66-27.31-18s-22.4,2.93-31.44,11.89c-.16-1.88-.3-2.84-.3-3.81q0-20,0-40a36.56,36.56,0,0,0-6.21-21.24,35.61,35.61,0,0,0-40-14c-15.28,4.74-25.24,18.17-25.25,34.61q-.09,117.23.08,234.44a110.6,110.6,0,0,0,2.53,20.77c2.41,12.36,7.94,23.48,15.68,34.76l-6.87-2.27c-4.86,16.11-5.51,31.7.57,47.27.59,1.52,1.56,3.24,1.31,4.68-1,5.86-2.49,11.65-3.9,17.93-19.5-4.65-36.8-.62-51.07,11.69-.14,2.19-.27,4.39-.47,7.53,10.66,12.54,25.6,18.17,43.38,18.48-1.9,8.58-3.65,16.5-5.4,24.43h270c-2.1-9.17-4.19-18.33-6.43-28.13,24.79,7.21,45.68,3,61.75-15.9v-7.86C452.49,430.77,429.93,428.83,406.46,442.17Zm-56.19-405c.07-20.15,17.78-33.6,36.16-27.77a27.29,27.29,0,0,1,19.16,26c.18,52.31.08,104.63.06,156.94a25.8,25.8,0,0,1-.46,2.94c-3.47-3.47-6.32-6.34-9.21-9.18-4-4-7.86-8.2-12.21-11.8-9.51-7.88-20.57-9.54-33.54-6.61V140.15C350.23,105.83,350.13,71.52,350.27,37.2ZM287.06,145.91a27.58,27.58,0,1,1,55.15-.09c.07,7.33.2,14.66-.11,22a8.8,8.8,0,0,1-2.71,5.72c-17.42,14.68-18.64,38.36-2.62,54.55,5.3,5.35,5.34,5.7,1.36,12.13A27.59,27.59,0,0,1,287,225.84c0-6.66,0-13.32,0-20v-20C287.05,172.55,287,159.23,287.06,145.91Zm-63.38,1.22c.07-16.76,11.87-29.09,27.71-29,15.58.06,27.49,12.38,27.54,28.74q.12,39,0,77.93c-.06,16.28-12.14,28.59-27.73,28.56s-27.42-12.39-27.5-28.76c-.07-13,0-26,0-39C223.67,172.77,223.63,160,223.68,147.13ZM160.26,310.87c-.26-77.32-.1-154.65-.07-232,0-14.37,8.8-25.82,21.72-28.62s25.72,3.32,30.93,15.4a38.06,38.06,0,0,1,2.67,14.54c.19,47.66.09,95.32.15,143,0,3.65,0,7.45,1,10.9,4.1,14.38,14.34,23.17,28.37,26,13.61,2.79,25.38-2.43,34.13-13.52,3-3.8,4-3.86,7.42.1,13.3,15.52,32.22,18.82,47.66,7.69,4.3-3.11,7.82-7.64,10.85-12.09,2.29-3.37,3.64-3.49,6.32-.77,10.06,10.2,20.24,20.3,30.37,30.43.95.94,1.75,2.3,2.89,2.7,1.59.56,3.43.4,5.16.55-.08-1.93.63-4.58-.37-5.68-5.14-5.68-10.72-11-16.14-16.37-10.48-10.49-21.06-20.87-31.41-31.49-11.16-11.45-11.05-28.62,0-39.45s27.94-10.63,39.41.82q36.82,36.7,73.51,73.54c12.81,12.85,12.68,29.06-.23,42-22.39,22.38-44.71,44.84-67.27,67.06-6.62,6.52-13.88,12.41-20.94,18.48-7.46,6.4-15.94,7-25.28,4.91a77.74,77.74,0,0,1-61-73.51c0-.83.29-1.89-.12-2.45a52.87,52.87,0,0,0-3.85-4.36c-1.35,1.56-4,3.28-3.84,4.66,1.17,9.36,1.79,19,4.73,27.88,8,24.2,24.33,41.26,47.91,51.22a18.18,18.18,0,0,1,1.75.92c.11.06.14.26.57,1.09h-5.9c-28.83,0-57.68-.66-86.48.27-15.8.51-28.59-5-40.36-14.25C172,362.84,160.36,339.41,160.26,310.87ZM158,489.37c2.67-12.24,5.24-24.07,7.81-35.9q4.09-18.8,8.19-37.57c2.15-9.8,6.69-13.46,16.72-13.46H375c10.4,0,14.67,3.46,16.94,13.75q7.51,34.13,15,68.27c.32,1.45.48,2.93.8,4.91ZM527,394.58v0l.08,0Zm.09.06c.6.42.36.18,0,0Zm-.1-.05c-1.06-.47-2.14-.92-3.24-1.29-15.32-5.27-30.58-5.11-45.09,2.23-13,6.59-24.55,15-25.32,31.66,18.2,10.13,51.14,8.29,69.6-15.76,3.64-4.74,6.58-9.6,4.07-16.83ZM128.41,417c-14-24.69-46.59-34.33-73.2-21.6.62,1.63,2,3.74,1.52,4.25-3,3.35,0,5.52,1.39,7.73,9.33,14.76,23,22.75,40.1,25.09a57.09,57.09,0,0,0,32.27-5C129.77,423.64,130,419.81,128.41,417Zm370.46-34.39c33.71,5.62,67-24.12,63.33-53.05C527.76,323.31,495.18,354.22,498.87,382.61Zm-413.63-.5c2.78-28.3-28.31-57.89-63.83-52.84C18.17,364.11,59.14,389.23,85.24,382.11ZM536.66,321c32.19-5.2,57.35-44.9,45.07-71.13C551.24,255.84,528.59,285.36,536.66,321ZM1.56,249.82c-7.81,32.56,14.62,67.33,45.54,71C55.22,284.26,31.5,255.48,1.56,249.82Zm26-3.48c17.91-20.13,9.1-63.75-16.53-80.59C-6.37,189.3,2.63,232.5,27.56,246.34Zm528.82,0c30.6-18.75,30-62.12,16.39-80.63C547.12,182.85,538,228.1,556.38,246.32Zm-39.73,68c5.87-19.09,7.07-37.62-2-55.68a34.55,34.55,0,0,0-18.6-17.13C482.86,268.29,493.07,305.33,516.65,314.36ZM78.78,307.12c14.63-13.9,19-47.17,8.75-65.47a32.91,32.91,0,0,0-16.76,14.17c-11.1,18.77-9.52,38.37-3.48,59.57C71.69,312.27,75.63,310.11,78.78,307.12Zm370.51,95.19c24.66-14.64,24.51-55,11-72.89C434.16,344.7,436.26,388.43,449.29,402.31Zm-314.69,0c13.25-15.78,14-58.07-11.13-72.92C107.34,351.54,113.55,391.3,134.6,402.32ZM40.43,92.22C18,109.64,19.52,150.84,34.88,165.09,59,147.17,55,104.58,40.43,92.22ZM549,165.1c17.35-17.79,14.45-56.42-5.73-72.82C525.4,109,528.84,151,549,165.1ZM524.2,94.76C532.43,67.24,521,38,494.9,30,485.58,61.11,501.11,89.13,524.2,94.76ZM88.41,30c-27,8.87-36.69,38.67-28.92,65.09C87.9,86.57,97.17,53.89,88.41,30ZM101.7,132.05c-19.78-5.16-49.37,17.87-47.38,47.75C73.26,184.94,103.77,162.87,101.7,132.05Zm380.46.09c-2.88,29.13,28,53.67,47.52,47.31C526.68,148.78,503.91,126.1,482.16,132.14ZM86,182.79c-23.35,2-40.29,31.56-34.62,60.71C75.62,241.25,94.76,207.33,86,182.79ZM532.45,243c5.92-28.09-12-58.94-35-60.21C490.64,210.31,511.19,245.7,532.45,243ZM139.22,61.1c10.87-8.72,17.53-19.68,16.32-34.6a37.43,37.43,0,0,0-28.29,6.67c-12,8.53-19.09,20-18.49,35.68C118.64,71,130.25,68.29,139.22,61.1ZM475,68.94c-2.39-28.27-23.36-47-46.8-42.22C428.49,53.49,450.37,73.36,475,68.94ZM103.1,296c-20.95,12.52-19,52.82-5.85,67.87C119.61,350.54,115.58,309.08,103.1,296Zm377.39-.16c-12.75,14.52-15.69,54.86,6,68.22C502.14,343,499,308.33,480.49,295.8ZM129.2,97.45a4.8,4.8,0,0,0,.56-2.28c-.15-2-.51-3.92-.87-6.46C115.35,81,94.67,86.32,82.62,100.37c-3.9,4.55-3.16,9.58-4.55,14.6a9.15,9.15,0,0,0,1.47,1C96.79,123.56,121.25,114.44,129.2,97.45Zm325.56-9c0,3.69-1,7.1.16,9.42,9,18,32.65,25.84,51.13,17-.66-1.57-2.11-3.5-1.66-4.17,2.92-4.4-.92-6.69-2.81-9.26a39.24,39.24,0,0,0-20-14.25C472.19,84.23,463,84.54,454.76,88.46ZM221.84,445.53c7.7-8.28,8.8-20.53,2.82-27-5-5.49-15.43-6.43-20.82-1.21a19,19,0,0,0-5,9.36c-1.41,7.08-.22,13.84,6.44,18.76-8.24,5.38-8,13.1-7.32,20.88a14.68,14.68,0,0,0,14.23,13.48c8.11.44,15.22-4.13,16.43-11.51C230,459.91,230.53,451.43,221.84,445.53Zm-2.27,18.22c-.19,3.55-2.18,6.16-5.88,6.24-3.94.08-5.94-2.53-6.39-6.31a24.86,24.86,0,0,1,0-3l-.24,0c.27-1.8,0-4,1-5.3,1.35-1.77,3.63-3.91,5.5-3.9s4.59,2.1,5.38,4C219.92,457.85,219.72,461,219.57,463.75Zm-6-23.5c-4.28.1-6.64-3.12-6.67-9.13,0-5.19,2.33-8.34,6.31-8.43s6.64,3.25,6.75,8.66S217.74,440.16,213.6,440.25Zm54.65-10.83c-.18-8.91-6.45-15.28-15-15.39a14.83,14.83,0,0,0-15.47,14.88q-.36,18,0,36c.16,8.83,6.82,15,15.44,14.88s14.83-6.49,15-15.37c.1-5.83,0-11.66,0-17.48S268.36,435.25,268.25,429.42Zm-10,17.4h0c0,5.66,0,11.32,0,17,0,3.56-1.69,5.93-5.19,6.06-3.76.14-5.86-2.31-5.9-6q-.17-17.24,0-34.46c0-3.44,2.1-5.85,5.56-5.82,3.7,0,5.59,2.44,5.56,6.25C258.19,435.5,258.22,441.16,258.22,446.82Zm62.29,14.43-1.28-.13c-2.49-15.23-5-30.47-7.5-46h-9.67a32.33,32.33,0,0,0,.26,3.33Q307,444.76,311.81,471c1.51,8.28,1.56,8.14,10.26,8.22,3.2,0,4.6-.73,5.17-4.23,2.06-12.8,4.56-25.54,6.89-38.31,1.3-7.13,2.58-14.25,3.93-21.67h-9.9C325.59,430.53,323.05,445.89,320.51,461.25Zm35.29-46.08h-9.1v63.59h25.81v-9.38H355.8Zm-69,.1c-1.48-.18-2.43-.38-3.39-.41-1.81-.05-3.61,0-5.89,0v64H303v-9.38H286.76ZM796.51,81.08c-52.54,0-81.4,30.29-81.4,83.3v10.41c0,32.66,10.41,54.9,32.18,66.73-22.72,12.78-32.18,37.39-32.18,69.1v26c0,53,28.86,83.29,81.4,83.29s81.4-30.28,81.4-83.29v-26c0-31.71-9.47-56.32-32.18-69.1,21.29-11.83,32.18-34.07,32.18-66.73V164.38C877.91,111.37,849,81.08,796.51,81.08Zm29.34,254.15c-.47,29.34-12.78,37.39-29.34,37.39s-29.34-8.05-29.34-37.39V304.47c0-26,10.88-37.39,29.34-37.39s29.34,11.36,29.34,37.39Zm0-150.5c0,26.5-12.78,35-29.34,35-17,0-29.34-8.52-29.34-35V166.27c0-29.81,12.77-37.86,29.34-37.86s29.34,8.05,29.34,37.86ZM983.92,81.08c-51.11,0-79,30.29-79,83.3V336.65c0,53,27.92,83.29,79,83.29s79-30.28,79-83.29V164.38C1063,111.37,1035,81.08,983.92,81.08Zm27,258.88c0,23.67-10.41,32.66-27,32.66s-27-9-27-32.66V161.07c0-23.67,10.41-32.66,27-32.66s27,9,27,32.66Zm85.66,76.2h50.17V366h-50.17ZM1236.64,84.87h-52.05V416.16h137.72V368.83h-85.67ZM1408,355.11,1368.21,84.87h-52.53l51.11,331.29h77.62l51.11-331.29h-47.8Zm163.75,13.72v-284h-52.06V416.16h137.72V368.83Z"
          transform="translate(0 0)"/>
</svg>