<svg id="Layer_1" data-name="Layer 1" xmlns="http://www.w3.org/2000/svg" viewBox="0 0 499.21 92.68" fill="#4a9a96">
    <title>Behance</title>
    <path id="path12"
          d="M42.9,0A45,45,0,0,1,54.69,1.31a25.48,25.48,0,0,1,9.17,3.6,15.15,15.15,0,0,1,5.89,6.88,26,26,0,0,1,2,10.48c0,4.58-1,8.51-3.28,11.46a23.59,23.59,0,0,1-9.17,7.53c5.57,1.64,9.83,4.59,12.45,8.52A25.8,25.8,0,0,1,76,64.19,26.23,26.23,0,0,1,73.36,76a21.78,21.78,0,0,1-7.21,8.18,33.77,33.77,0,0,1-10.48,4.59,48.84,48.84,0,0,1-11.79,1.64H0V0ZM40.28,36.68a14.88,14.88,0,0,0,8.84-2.62c2.3-1.64,3.28-4.59,3.28-8.19a12.57,12.57,0,0,0-1-5.24,9.31,9.31,0,0,0-3-3.27,16.35,16.35,0,0,0-4.26-1.64A26.26,26.26,0,0,0,39,15.39H20V36.68Zm1,38.64a29.46,29.46,0,0,0,5.57-.65,11.61,11.61,0,0,0,7.86-5.57A15.55,15.55,0,0,0,56,63.2c0-4.58-1.31-7.85-3.93-10.15-2.62-2-6.22-2.94-10.48-2.94H20V75.32Z"/>
    <path id="path14"
          d="M104.47,75q3.93,3.93,11.79,3.93a17.86,17.86,0,0,0,9.49-2.62c2.62-2,4.26-3.93,4.92-5.89h16c-2.62,7.86-6.55,13.43-11.79,17a35,35,0,0,1-19,5.24,38.45,38.45,0,0,1-14.08-2.62,26.15,26.15,0,0,1-10.48-7.21,25.93,25.93,0,0,1-6.55-10.8A38.53,38.53,0,0,1,82.53,58a37.87,37.87,0,0,1,2.29-13.75A35.21,35.21,0,0,1,91.7,33.08a33.19,33.19,0,0,1,10.48-7.21,36.65,36.65,0,0,1,13.75-2.62,30.48,30.48,0,0,1,14.74,3.28,26.6,26.6,0,0,1,10.15,8.84,39.67,39.67,0,0,1,5.89,12.44,68.21,68.21,0,0,1,.66,14.41H99.88C99.88,67.46,101.85,72.37,104.47,75ZM125.1,40.61C122.81,38.32,119.2,37,115,37a15.68,15.68,0,0,0-7.21,1.63,17.44,17.44,0,0,0-4.58,3.61,8.65,8.65,0,0,0-2.29,4.58,22.43,22.43,0,0,0-.66,4.26h29.47C129,46.18,127.39,42.9,125.1,40.61Z"/>
    <path id="path16"
          d="M172.91,0V34.06h.33a19.29,19.29,0,0,1,8.84-8.19,24.73,24.73,0,0,1,10.48-2.62q7.37,0,11.79,2a17.81,17.81,0,0,1,7.21,5.56,22.57,22.57,0,0,1,3.6,8.52,56.66,56.66,0,0,1,1,11.13V90.71h-18v-37c0-5.57-1-9.5-2.62-12.12s-4.59-3.93-8.84-3.93c-4.92,0-8.52,1.64-10.48,4.26-2.3,2.95-3.28,7.86-3.28,14.41V90.71h-18V0Z"/>
    <path id="path18"
          d="M229.24,34.71a24.09,24.09,0,0,1,7.2-6.87,32.15,32.15,0,0,1,9.83-3.61,60.7,60.7,0,0,1,10.81-1c3.27,0,6.55.33,10.15.66a27,27,0,0,1,9.17,2.62,19.06,19.06,0,0,1,6.87,5.56,16.33,16.33,0,0,1,2.62,9.5V76a68.67,68.67,0,0,0,.66,8.51,13.81,13.81,0,0,0,2.29,6.22H270.5a8.16,8.16,0,0,1-1.31-2.94,11.46,11.46,0,0,1-.32-3.28,25.12,25.12,0,0,1-10.16,6.22,36.64,36.64,0,0,1-11.79,1.64A26.38,26.38,0,0,1,238.08,91a21.1,21.1,0,0,1-7.2-3.6A18.82,18.82,0,0,1,226,81.22a23.73,23.73,0,0,1-1.63-8.85,19.05,19.05,0,0,1,2-9.17,21.58,21.58,0,0,1,4.91-5.89A24.17,24.17,0,0,1,238.41,54a59.92,59.92,0,0,1,8.19-1.64l7.86-1q3.93-.49,6.87-1a17,17,0,0,0,4.92-2.29c1.31-1,1.63-2.29,1.63-4.26a8.61,8.61,0,0,0-1-4.58,9.89,9.89,0,0,0-2.62-2.62,11.63,11.63,0,0,0-3.6-1.31,20,20,0,0,0-4.59-.33c-3.6,0-6.22.66-8.18,2.29a11,11,0,0,0-3.61,7.54h-18A19.53,19.53,0,0,1,229.24,34.71Zm35.7,25.55c-1,.32-2.3.65-3.61,1s-2.62.33-4.25.65c-1.31.33-2.95.33-4.26.66l-3.93,1a7.7,7.7,0,0,0-3.28,1.64,8.9,8.9,0,0,0-2.29,2.62c-1,1.31-1,2.62-1,4.26a7.06,7.06,0,0,0,1,3.93,9,9,0,0,0,2.29,2.62,12.05,12.05,0,0,0,3.61,1.31,17.66,17.66,0,0,0,4.25.32,18.07,18.07,0,0,0,8.19-1.63,13.09,13.09,0,0,0,4.26-4.26,9.8,9.8,0,0,0,1.64-4.91,19.25,19.25,0,0,0,.32-3.93V58.62A13.55,13.55,0,0,1,264.94,60.26Z"/>
    <path id="path20"
          d="M313.08,24.89v9.17h.32a19.31,19.31,0,0,1,8.85-8.19,27.58,27.58,0,0,1,11.13-2.62q7.37,0,11.79,2a15.8,15.8,0,0,1,7.2,5.56,29.18,29.18,0,0,1,3.93,8.52,55.85,55.85,0,0,1,1,11.13V90.71h-18v-37c0-5.57-1-9.5-2.61-12.12s-4.59-4.26-9.17-4.26a13.1,13.1,0,0,0-10.81,4.92c-2.29,2.94-3.28,7.86-3.28,14.4V91h-18V24.89Z"/>
    <path id="path22"
          d="M397.57,36.68a12.48,12.48,0,0,0-7.21,2,15.22,15.22,0,0,0-4.91,5.24,21.67,21.67,0,0,0-2.62,6.88,29.52,29.52,0,0,0-.65,7.53,53.36,53.36,0,0,0,.65,7.21,19.76,19.76,0,0,0,2.62,6.55A16.44,16.44,0,0,0,390,77a12.42,12.42,0,0,0,7.2,2,14.75,14.75,0,0,0,10.15-3.6,15.23,15.23,0,0,0,4.26-9.82H429c-1.31,8.84-4.59,15.39-10.16,20s-12.77,6.88-21.61,6.88a35,35,0,0,1-13.43-2.62,29.29,29.29,0,0,1-10.48-6.88,32.25,32.25,0,0,1-6.87-10.48A36.07,36.07,0,0,1,364.16,59a38.44,38.44,0,0,1,2.3-14.08A35.93,35.93,0,0,1,373,33.4a34.29,34.29,0,0,1,10.48-7.53,38.41,38.41,0,0,1,14.08-2.62,41.64,41.64,0,0,1,11.13,1.64,28.55,28.55,0,0,1,9.5,4.58,20.09,20.09,0,0,1,6.88,7.86A27.84,27.84,0,0,1,428,48.47H410.34Q409.35,36.68,397.57,36.68Z"/>
    <rect id="rect24" x="96.28" y="6.22" width="36.68" height="8.84"/>
    <path id="path26"
          d="M456.19,75c2.62,2.62,6.87,3.93,11.79,3.93a17.86,17.86,0,0,0,9.49-2.62c2.62-2,4.26-3.93,4.92-5.89h15.72c-2.62,7.86-6.55,13.43-11.79,17a35,35,0,0,1-19,5.24,38.45,38.45,0,0,1-14.08-2.62,26.15,26.15,0,0,1-10.48-7.21,25.93,25.93,0,0,1-6.55-10.8A38.53,38.53,0,0,1,433.92,58a37.87,37.87,0,0,1,2.29-13.75,35.21,35.21,0,0,1,6.88-11.13,33.3,33.3,0,0,1,10.48-7.21,38,38,0,0,1,13.75-2.62c5.57,0,10.48,1,14.41,3.28a26.53,26.53,0,0,1,10.15,8.84,39.69,39.69,0,0,1,5.9,12.44,43.45,43.45,0,0,1,1.31,14.74H451.6c0,4.91,2,9.82,4.59,12.44Zm21-34.38c-2.3-2.29-5.9-3.6-10.16-3.6a15.63,15.63,0,0,0-7.2,1.63,13.35,13.35,0,0,0-4.59,3.61,12.13,12.13,0,0,0-2.29,4.58,22.35,22.35,0,0,0-.65,4.26h29.47c-1-4.91-2.62-8.19-4.58-10.48Z"/>
</svg>