<svg id="Layer_1" data-name="Layer 1" xmlns="http://www.w3.org/2000/svg" viewBox="0 0 153.41 82.74" fill="#4a9a96">
    <title>Branding news</title>
    <path d="M9.81,68.07V14.35L0,13.85V.52A7,7,0,0,1,1.79,0c16,0,32-.1,48,.13,9,.13,15.93,4,19.93,12.4,4.23,8.92,2.46,17.33-5,23.74A17.77,17.77,0,0,0,62.59,39c1.85,1.53,3.92,3.36,6.1,5C79.76,52.6,76.27,75.55,60,80.18c-3.64,1-7.38,2.34-11.1,2.4-16.14.27-32.28.11-48.8.11V68.93ZM32,46.92V68.34c3.71,0,7.16.16,10.59,0,6.73-.37,9.88-3.66,10.07-10.22.17-6-3.43-10.43-9.59-11.1C39.49,46.6,35.86,46.92,32,46.92Zm.07-32.64V32.6c5.83-1.08,12.58,2.18,16.12-4.16,1.52-2.73,1.54-7.86-.08-10.46C44.4,12,37.82,14.86,32.06,14.28Z"/>
    <path d="M153.41,70.11V82.68h-26.8c0-5.93.08-11.85,0-17.77-.12-6.65-.39-13.29-.6-19.94-.13-3.8-2.16-5.14-5.86-5-6.7.28-9.25,2.63-9.28,9.14s0,13.26,0,20.21l7.62.79V82.7H83.16V69.94C92,69.61,92,69.61,92,60.76c0-5.83-.08-11.66.06-17.49.07-2.86-.8-4.52-3.89-4.33-4.35.28-6-1.74-5.39-6a14.42,14.42,0,0,0,0-4c-.39-2.83.77-4,3.58-3.93,8,.06,16,0,24,0l.78,3.19c6-1.44,11.71-3.67,17.48-4,8.91-.45,15.71,6.5,16.16,15.48.35,7,.28,13.92.32,20.88C145.12,69.42,145.09,69.42,153.41,70.11Z"/>
</svg>