<svg id="Layer_1" data-name="Layer 1" xmlns="http://www.w3.org/2000/svg" viewBox="0 0 1663.8 218.13" fill="#4a9a96">
    <title>Gamology</title>
    <path d="M154.83,79.24c-3.81-.16-6.78,3-7.26,7.93-.16,1.64-.56,3.57.1,4.9,1,2.13,3,5.52,4.37,5.4,2.45-.22,5-2.27,6.91-4.2,1-1.09.8-3.44,1-4.29C160.15,82.54,158.31,79.39,154.83,79.24Zm66.27-10.7c-3.3-1-5.91,1.43-6.9,4.88a40.69,40.69,0,0,0-.82,4.38c.36,4.08-.21,8.23,4.85,9,4,.62,6.94-2.51,7.56-8,.17-1.47.55-3.24-.06-4.39C224.55,72.22,223.08,69.13,221.1,68.54Zm-145,27.05-2.69,10.53,6.3-1.25c-1-3.45-1.85-6.35-2.69-9.24Zm255.35,29.14C329,110.4,326.52,96.1,324,81.79c-1.46-8.28-3.36-16.5-4.46-24.83-1.6-12.07-6-23.34-13.77-32.12C291.14,8.38,273.1-1,249.78,1.29c-14.32,1.38-26,6.79-36.67,15.74a11.62,11.62,0,0,1-6.84,2.43q-36.48.25-73,0a13.19,13.19,0,0,1-7.82-2.92A68.15,68.15,0,0,0,82.64,0C77,1.18,71.45,2.32,65.87,3.55c-12.41,2.72-22,10.06-30.52,19C23.74,34.71,20.25,50.22,17.5,66c-2.18,12.51-4.36,25-6.39,37.54q-4,24.45-7.64,49c-1,6.53-1.31,13.18-2.58,19.66a38.56,38.56,0,0,0,1.36,21.2c5.43,14.48,20.11,26.66,39.32,24.43,11.33-1.32,19-7.44,25.79-15.17,6.53-7.47,12.16-15.75,18-23.83,8.13-11.28,16-22.73,24.12-34,1.78-2.49,2.94-5.38,7.27-5.35,35.15.21,70.3.07,105.45.24a7.89,7.89,0,0,1,5.48,2.86c8.68,11.74,17.14,23.64,25.53,35.59,1.27,1.82,1.43,4.45,2.79,6.18,3.23,4.12,7.14,7.72,10.31,11.89,10.23,13.49,21.54,24.11,40.58,21.49,18.74-2.58,30.42-18,32.16-34.14.9-8.53-1.34-17.42-2.52-26.09C335,146.55,333.25,135.63,331.43,124.73Zm-276-9.63a3.83,3.83,0,0,1-.24,1.46c-1.85,4.32-13.65,9-20,8-5.82-.92-9.44-5.56-9.86-12.62C24.52,98.47,32.48,90.21,46,90.25c4.88,0,7.82,2.12,9,7.15-3.7.85-6.92,5-11.12.7-.62-.64-3.08-.6-3.72.06-2.06,2.14-4.83,4.56-5.16,7.15-.45,3.46.71,7.36,2.13,10.66.39.92,4.31.94,6.3.36,1.74-.52,3.06-2.47,4.56-3.78l-.87-1.29-5.54.4v-6.53l13.88-2.29C55.46,107.19,55.47,111.14,55.45,115.1Zm28.14,1.76c-.72-1.67-1.36-3.12-2.13-4.89-2.59.37-5.21.61-7.76,1.17-1,.21-2.55,1-2.65,1.74-.91,6.53-6.23,4.42-10.7,5.91,3.72-11.4,6.74-22.24,11-32.56,1-2.33,6.24-2.87,10-4.42,4,10.92,7.63,20.82,11.51,31.39Zm39.91-7V88.79l-.93-.12c-1.31,5.67-3,11.29-3.83,17-.73,4.94-3.16,6.52-8.14,5.71l-4.91-19.49-1,.07c0,5-.36,10.06.1,15,.5,5.39-1.62,7.38-7.15,6.63V81.71l11.6-2.11c1.46,5.71,2.89,11.27,4.31,16.84l.89.18c.94-4.05,2.31-8.05,2.7-12.15.51-5.31,3.16-7.54,8.23-7.58,1.48,0,3-.27,4.89-.45l.05,32.12Zm32.44-5.07h0c-11.23,2.92-17.66-2.14-17.64-13.89,0-12.55,8.45-20.7,20.56-19.17a12.64,12.64,0,0,1,8,4.88C173.47,86.63,167.31,101.88,155.94,104.84Zm38.23-6.6c-5.72,1-11.46,1.88-17.55,2.87V68.68l8.75-1.44V91.53l14.06-2C200.94,97,200.91,97.07,194.17,98.24Zm27.66-4.38c-11.21,2.88-17.57-2.21-17.53-14,0-12.51,8.58-20.68,20.66-19.07a12.62,12.62,0,0,1,8,5C239.46,75.82,233.26,90.93,221.83,93.86Zm49.62-14.41a3.08,3.08,0,0,1-.16,1c-1.62,4.13-13,8.92-19.47,8.22-5.59-.59-9.09-4.18-10.29-10.55-2.7-14.27,7.85-25.48,22.32-23.77,4.06.48,6.1,3,7.22,7.13-4.05,1.2-7.4,4.51-11.56.6-.78-.72-3.61,0-5.07.88-4.36,2.47-5.73,13.32-1.95,16.58a7.29,7.29,0,0,0,5.84,1.13c2.1-.57,3.83-2.48,5.72-3.81-.29-.5-.57-1-.86-1.49l-5.53.27V69.15l13.79-2.34c0,4.42,0,8.53,0,12.64ZM300.2,62.56h0a30.66,30.66,0,0,0-2.77,10.76c-.4,8.19-.13,8.21-9.8,9.23,4.21-12.76-5.19-20.63-11.33-30.71,4.12-.29,7.94-1.69,10.35-.42s3.74,5.22,5.94,8.64c4-6.16,5-15.06,15.63-12.35C305.57,52.52,302.53,57.38,300.2,62.56Zm1135.41,70.53h28.61v13a73.91,73.91,0,0,1-14.92,7.09,44.94,44.94,0,0,1-13.69,2.08q-15.12,0-23.57-9.64t-8.45-32.11q0-21.15,8.36-30.93t22.43-9.78q9.43,0,15.54,4.16a22.36,22.36,0,0,1,8.64,12l41.27-7.36q-3.78-13.41-11.29-22.15a44.49,44.49,0,0,0-18.88-12.89q-11.39-4.15-34.34-4.16-23.79,0-37.87,6.71a60.48,60.48,0,0,0-27.39,25.45q-9.35,16.77-9.35,39.43,0,21.54,8.55,38.16a57.51,57.51,0,0,0,24.08,25q15.54,8.4,40.19,8.4,20,0,34.61-4.67t33.58-17.62v-59h-66.11ZM1121.94,44.78h-42.78V183.24h109.56V149.15h-66.78Zm149-2.36q-33.72,0-52.61,18.89t-18.89,52.8q0,24.27,9.54,40.42t24.89,23.61q15.35,7.47,38.77,7.46,23,0,38.49-8.64a58.27,58.27,0,0,0,23.61-24.18Q1343,137.26,1343,113q0-33.43-18.7-52T1271,42.42Zm21.63,102.19q-7.56,9-21.35,9-13.41,0-21.2-9.17t-7.79-30.13q0-21.15,7.84-30.31t20.78-9.16q13.5,0,21.39,9t7.89,28.57Q1300.17,135.65,1292.61,144.61Zm323.92-99.83-28,46.71-27.89-46.71h-47.53l53.93,80.47v58H1610v-58l53.84-80.47ZM984.14,42.42q-33.72,0-52.61,18.89t-18.89,52.8q0,24.27,9.54,40.42t24.89,23.61q15.34,7.47,38.77,7.46,23,0,38.49-8.64a58.27,58.27,0,0,0,23.61-24.18q8.18-15.53,8.17-39.81,0-33.43-18.7-52T984.14,42.42Zm21.63,102.19q-7.56,9-21.35,9-13.41,0-21.2-9.17t-7.79-30.13q0-21.15,7.84-30.31T984,74.82q13.51,0,21.4,9t7.88,28.57Q1013.32,135.65,1005.77,144.61ZM623.15,44.78l-52,138.46H614.8l6.75-22.85h48.57l6.93,22.85h44.8l-52-138.46Zm7.69,85.67L646,80.67l15.29,49.78ZM813,129l-21.7-84.25H735V183.24h35V77.65l27,105.59h31.72l27-105.59V183.24h35V44.78H834.5Zm-319.47,4.06h28.61v13a73.91,73.91,0,0,1-14.92,7.09,44.94,44.94,0,0,1-13.69,2.08q-15.12,0-23.57-9.64t-8.45-32.11q0-21.15,8.36-30.93t22.43-9.78q9.44,0,15.54,4.16a22.36,22.36,0,0,1,8.64,12l41.27-7.36q-3.78-13.41-11.29-22.15a44.46,44.46,0,0,0-18.89-12.89q-11.37-4.15-34.33-4.16-23.79,0-37.87,6.71a60.48,60.48,0,0,0-27.39,25.45q-9.36,16.77-9.35,39.43,0,21.54,8.55,38.16a57.51,57.51,0,0,0,24.08,25q15.54,8.4,40.19,8.4,20,0,34.61-4.67t33.58-17.62v-59H493.48Z"
          transform="translate(0 0)"/>
</svg>