<svg id="Layer_1" data-name="Layer 1" xmlns="http://www.w3.org/2000/svg" viewBox="0 0 109.25 26.73"><title>HeyAnts</title><path d="M0,26.64,5.21,0H52.78c-.37,2-.71,4-1.08,6-1.26,6.58-2.53,13.16-3.76,19.75-.13.7-.32,1-1.11,1q-23.1,0-46.18,0C.49,26.71.34,26.68,0,26.64ZM50.12,2.3a3.74,3.74,0,0,0-.53-.12q-20.87,0-41.74,0c-.75,0-.9.35-1,1-1.08,5.6-2.2,11.19-3.29,16.79-.29,1.47-.55,2.95-.84,4.55H4.31c13.4,0,26.79,0,40.18,0,1.19,0,1.55-.39,1.74-1.48.73-4.16,1.56-8.31,2.35-12.46C49.09,7.85,49.6,5.11,50.12,2.3Z"/><path d="M71.45,4.24H77V14.53l.44.05c.73-3.41,1.47-6.82,2.22-10.31h4.68c-1.28,6-2.55,12-3.84,18.1H75.12c-.14-3.44-.27-6.87-.41-10.31l-.35,0L72.13,22.36H67.6Z"/><path d="M66.14,4.19c.14,6.12.28,12.1.42,18.16H61.42V19.61a21.72,21.72,0,0,0-3,.05c-.35.06-.77.65-.87,1.07A2,2,0,0,1,55,22.46a27.62,27.62,0,0,0-3.3,0l2-4.46c1.92-4.29,3.86-8.58,5.75-12.89a1.28,1.28,0,0,1,1.42-.92C62.54,4.23,64.25,4.19,66.14,4.19ZM61.73,15.67c.14-2.35.27-4.6.41-6.85l-.3-.05-2.53,6.9Z"/><path d="M104.55,9.35a2.91,2.91,0,0,1-.09-.35c.08-.67.34-1.47-.51-1.75a1.45,1.45,0,0,0-1.35.36,3,3,0,0,0-.4,2.05c.15.53.88,1,1.45,1.3.85.51,1.79.86,2.66,1.34A3.2,3.2,0,0,1,108,15.38c-.23,4-2,7.07-6.6,7.3a16,16,0,0,1-4-.23,3.47,3.47,0,0,1-2.28-4.93.85.85,0,0,1,.59-.43c1.39,0,2.78,0,4.26,0a2.79,2.79,0,0,0-.12.91c.14.49.29,1.27.59,1.36A1.86,1.86,0,0,0,102,18.9c1.06-1.08.78-2.38-.57-3.15-1-.58-2.11-1.13-3.13-1.76a3.17,3.17,0,0,1-1.51-3.27c.54-5.38,5.2-8.31,10.33-6.48,1.95.69,2.55,2.28,1.85,5.11h-4.42Z"/><path d="M85.44,4.24h12l-.86,4.18c-.83,0-1.63.07-2.41,0S93,8.72,92.8,9.51C91.94,13.69,91,17.86,90.15,22c0,.11-.08.21-.13.36H85.09c1-4.63,1.94-9.2,2.94-13.93H84.58C84.88,7,85.15,5.68,85.44,4.24Z"/><path d="M21.34,4.07,17.55,22.15H12.64l1.45-7.09c-.16-.11-.22-.19-.29-.19-2.18-.18-2.17-.18-2.6,2-.31,1.52-.68,3-.94,4.57-.11.66-.39.86-1,.84-1.32,0-2.63,0-4.1,0,.51-2.41,1-4.7,1.47-7C7.33,11.8,8.08,8.37,8.75,4.92c.14-.7.4-.93,1.09-.91,1.28,0,2.56,0,4,0l-1.3,6.44c.16.09.22.17.29.17,2.17.15,2.17.14,2.61-2,.27-1.29.49-2.59.82-3.86a1.17,1.17,0,0,1,.8-.76c1-.1,2.07,0,3.11,0C20.51,4,20.83,4.05,21.34,4.07Z"/><path d="M30.09,22.17H19.14c.75-3.6,1.48-7.14,2.22-10.68.45-2.18.89-4.37,1.4-6.55.09-.35.53-.87.82-.88C26.85,4,30.12,4,33.63,4c-.26,1.31-.47,2.5-.78,3.66-.05.19-.56.35-.87.36a32.79,32.79,0,0,1-3.71,0c-1-.08-1.47.29-1.51,1.29a12.73,12.73,0,0,1-.3,1.65h5.36L31,14.92c-1.44,0-2.83.06-4.22,0-.94-.05-1.4.23-1.47,1.21a16.51,16.51,0,0,1-.4,2h6Z"/><path d="M39.88,4.08v6l.27,0c.8-1.75,1.64-3.49,2.4-5.27A1.21,1.21,0,0,1,43.89,4c1.38.06,2.76,0,4.38,0L46.69,6.61c-.46.74-.89,1.51-1.4,2.23-2.79,4-5,8.22-5.12,13.3H35.06A39.62,39.62,0,0,1,35.93,18a11.84,11.84,0,0,0-.08-6.36c-.48-2.14-.89-4.29-1.32-6.44a11,11,0,0,1-.11-1.11Z"/></svg>