<svg id="Layer_1" data-name="Layer 1" xmlns="http://www.w3.org/2000/svg" viewBox="0 0 777.85 225.89" fill="#4a9a96">
    <title>IGN</title>
    <path class="cls-1"
          d="M400,132.94V92.29l109,0a20.08,20.08,0,0,1,20.09,20v48.31A45.25,45.25,0,0,1,484,206.13l-69.8.05a93.41,93.41,0,0,1-93.58-93.35c0-51.55,42.11-93.34,93.66-93.34H522.34V62.38H414.25c-27.87,0-50.75,22.59-50.75,50.45a50.48,50.48,0,0,0,50.68,50.43h72.1V132.94Z"/>
    <path class="cls-1"
          d="M306.44,19.26H264v167.1a20,20,0,0,0,20,19.9h22.48V33.07C306.46,33,306.44,19.26,306.44,19.26Z"/>
    <path class="cls-1"
          d="M729,19.36H706.26V163.41a2.35,2.35,0,0,1-.33,1.18,2.92,2.92,0,0,1-2.52,1.44,3.23,3.23,0,0,1-2.61-1.59L629.48,39.37a45.2,45.2,0,0,0-38.79-22h-.77a45.07,45.07,0,0,0-45.07,45.07v124a19.93,19.93,0,0,0,19.92,19.9h22.59V62.41a2.52,2.52,0,0,1,.42-1.32,2.9,2.9,0,0,1,2.53-1.48A2.72,2.72,0,0,1,592.82,61l71.77,125.88c7.92,13.29,22.15,21.39,38.45,21.39h.77a45.11,45.11,0,0,0,45.11-45.07v-124A19.92,19.92,0,0,0,729,19.36Z"/>
    <path class="cls-1"
          d="M770.37,29.54A2.69,2.69,0,0,0,772.14,27a3.07,3.07,0,0,0-3.23-3h-4v10h1.83V29.87h1.54l1.91,4.07h2.09Zm-1.76-.93h-1.9V25.37h1.9a1.62,1.62,0,1,1,0,3.24Z"/>
    <path class="cls-1"
          d="M768.22,19.33A9.63,9.63,0,1,0,777.85,29,9.63,9.63,0,0,0,768.22,19.33Zm0,17.56A7.71,7.71,0,0,1,760.43,29,7.8,7.8,0,1,1,776,29,7.71,7.71,0,0,1,768.22,36.89Z"/>
    <path class="cls-2"
          d="M50.66,72A75.22,75.22,0,0,1,72,50.66a270.14,270.14,0,0,1,4.94-30.25,99.84,99.84,0,0,0-56.5,56.5A266.36,266.36,0,0,1,50.66,72Z"/>
    <path class="cls-2"
          d="M153.87,50.41c0,.08,0,.15,0,.23A75.11,75.11,0,0,1,175.24,72a268.35,268.35,0,0,1,30.25,4.93,99.83,99.83,0,0,0-56.7-56.57A273.2,273.2,0,0,1,153.87,50.41Z"/>
    <path class="cls-2"
          d="M72,175.23A75.07,75.07,0,0,1,50.65,153.9l-.24,0a280.23,280.23,0,0,1-30.06-5.05,99.8,99.8,0,0,0,56.56,56.66A267.86,267.86,0,0,1,72,175.23Z"/>
    <path class="cls-2"
          d="M175.49,153.87l-.24,0a75,75,0,0,1-21.34,21.35c0,.08,0,.16,0,.24a272.39,272.39,0,0,1-5.08,30.06,99.81,99.81,0,0,0,56.76-56.72A276.29,276.29,0,0,1,175.49,153.87Z"/>
    <path class="cls-2"
          d="M94.49,0h36.7c8,17.37,11.25,43.24,12.26,52a31.71,31.71,0,0,1,.6,6L113,85.78,81.86,58a31.46,31.46,0,0,1,.47-5.15C83.29,43.86,86.36,17.55,94.49,0ZM81.86,167.94a31.38,31.38,0,0,0,.47,5.16c1,8.94,4,35.25,12.16,52.79h36.7c8-17.35,11.25-43.23,12.26-52a32,32,0,0,0,.6-6L113,140.13ZM58,81.85a30.49,30.49,0,0,0-5.16.48c-8.94,1-35.25,4-52.8,12.16v36.7c17.36,8,43.25,11.24,52,12.26a31.85,31.85,0,0,0,6,.59L85.77,113ZM225.9,94.48c-17.55-8.12-43.86-11.2-52.8-12.15a30.28,30.28,0,0,0-5.15-.48L140.13,113,168,144a31.93,31.93,0,0,0,6-.59c8.74-1,34.61-4.22,52-12.25Z"/>
</svg>