<svg id="Layer_1" data-name="Layer 1" xmlns="http://www.w3.org/2000/svg" viewBox="0 0 2247.42 483.77" fill="#1d3f53">
    <title>Nintendo switch</title>
    <path d="M103.38,2.39c-48.1,8.6-86.8,44.2-99,91-4.4,16.9-4.7,26.8-4.2,157.9.3,120.4.4,123.2,2.4,132.5,11.1,50.1,46.7,85.8,97.3,97.6,6.6,1.5,15,1.8,69.1,2.1,56,.4,61.8.3,63.3-1.2s1.6-20.8,1.6-239.6c0-162.2-.3-238.6-1-240-1-1.8-2.7-1.9-61.3-1.8C124,1,109.68,1.29,103.38,2.39Zm90.5,240V445l-40.7-.5c-37.5-.4-41.5-.6-49-2.5-32.2-8.3-56.1-33.1-62.8-65.4-2.2-10.1-2.2-258.9-.1-268.8a85.88,85.88,0,0,1,51.8-61.9c13.2-5.3,19.3-5.9,62.1-6l38.7-.1Z"/>
    <path d="M112,100.89c-6.3,1.2-15.9,6-21,10.5-10.5,9.1-15.7,22-14.9,37.2.4,7.9.9,10,4.1,16.4a45.54,45.54,0,0,0,21.5,21.6c6.7,3.3,8.4,3.7,17.1,4,7.9.3,10.7,0,16-1.8,21.7-7.3,34.8-28.4,31.1-50C161.58,113.09,137.18,95.89,112,100.89Z"/>
    <path d="M282.58,1.49c-.4.3-.7,108.7-.7,240.9,0,218.1.1,240.2,1.6,240.8,2.7,1,80.3.6,89.9-.4,40.6-4.6,76.4-29.3,95.9-66a148.57,148.57,0,0,0,7.5-17.5c6.3-18.8,6.1-13.8,6.1-157.5,0-114.7-.2-131.8-1.6-139.1-9.9-52.1-49.6-91.4-101.8-100.4-7-1.2-17.8-1.5-52.6-1.5C302.88.79,282.88,1.09,282.58,1.49Zm106.8,217.8a48.92,48.92,0,0,1,33.6,31.2c3.3,9.4,3.2,23.2-.1,31.8-6.1,15.8-18.1,26.9-33.5,31-25,6.5-51.6-8.6-58.9-33.4-2.2-7.6-2.1-20.4.4-28.2C338.38,227.19,364.38,212.79,389.38,219.29Z"/>
    <path d="M2153.55,2.78c-35.31,11.62-56.27,45.57-50.35,82.48,3.64,23.69,17.31,42.38,38.27,53.08,28.48,14.13,58.79,10.48,81.57-10,17.09-15.49,24.38-31.67,24.38-54.68,0-21.65-6.38-37.82-20.74-52.17C2208.68,3.47,2176.33-4.73,2153.55,2.78Zm40.33,33.27c13.67,7.06,21.19,18.45,22.33,33.94,1.36,20.28-7.3,34.86-25.3,42.38-30.52,12.76-65.16-16.63-56.5-48.3,3.65-14.12,9.8-22.1,21.19-27.79C2167.9,30.35,2182.26,30.12,2193.88,36.05Z"/>
    <path d="M626.38,73.64v69.72l14.35-.69,14.13-.68L656,98l1.14-44,33,44.42,33,44.66,13.67-.46,13.67-.68V5.29l-14.13-.68-14.35-.69v90L688.58,49,654.86,4.15H626.38Z"/>
    <path d="M854.21,73.64v69.49h29.62V4.15H854.21Z"/>
    <path d="M987.49,7.11c-.68,1.6-.91,32.58-.68,68.81l.68,66.07,14.36.68,14.12.69V51.09l34.18,46,34.17,46h27.34V4.15h-29.61l-.46,43.74-.68,43.75L1048.1,47.89,1015.52,4.15h-13.44C993.19,4.15,988.18,5.06,987.49,7.11Z"/>
    <path d="M1209,5.75c-.91.68-1.6,7.51-1.6,14.8V33.77h45.57V143.13h29.62V33.77h43.29V4.15h-57.64C1236.29,4.15,1209.63,4.84,1209,5.75Z"/>
    <path d="M1426.08,73.64v69.49h107.08V115.79h-79.74V83.89h72.9V58.83h-72.9V31.49l39.41-.45,39.19-.69.68-13.21.69-13H1426.08Z"/>
    <path d="M1645.93,7.11c-.68,1.6-.91,32.58-.68,68.81l.68,66.07,14.36.68,14.12.69V51.09l34.18,46,34.17,46h27.34V4.15h-29.61L1740,47.89l-.68,43.75-32.81-43.75L1674,4.15h-13.44C1651.63,4.15,1646.62,5.06,1645.93,7.11Z"/>
    <path d="M1886.3,73.41v69.72h30.3c35.09,0,51.72-3.42,66.76-13.9C2027.79,98.7,2021,33.31,1971.05,10.3c-9.34-4.33-15.71-5-47.61-5.69L1886.3,3.7Zm74.5-35.31c19.14,8.88,27.34,33.26,17.77,53.54-7.29,15-22.1,21.87-48.07,21.87h-16.86V33.77h18.91C1946,33.77,1954,35.14,1960.8,38.1Z"/>
    <path d="M1817.5,204.87c-31.67,4.1-59.93,18.91-83.16,43.75-50.81,54.68-49.22,137.84,3.87,190.69,19.59,19.82,37.36,30.08,62.88,36.46,41.92,10.7,84.3,2.27,118.93-23.93,13.44-10,31-29.61,29.62-33-.46-.91-9.8-9.34-21-19.14l-20-17.54-6.15,8c-29.39,38.51-88.86,42.61-123.26,8.2a101.05,101.05,0,0,1-15.27-21c-5.69-10.93-6.38-14.35-6.38-34.86,0-19.59.69-24.37,5.7-34.17,16.86-34.86,58.55-53.77,94.78-43.29,16.86,4.79,32.81,14.81,42.83,26.89l7.75,9.34,10-8.2c5.47-4.33,15-12.76,21.19-18.23l11.39-10.25-8.88-10.94C1912.73,217.63,1864.88,199,1817.5,204.87Z"/>
    <path d="M690.63,213.76c-54.23,14.35-82.25,50.58-70.18,91.59,8.66,30.3,37.37,45.11,113.69,58.78,51.27,9.11,66.3,16.63,66.3,32.81,0,11.16-6.6,19.36-21,26-12.3,5.7-15,6.15-46,6.15-36.68,0-51-3-78.15-15.26-8.43-3.88-15.72-6.61-16.17-6.15-2.74,3.41-24.38,43.74-23.7,44.19,2.28,2.51,38.73,15.73,53.77,19.83,25.06,6.6,78.6,8.2,105.94,3.19,51-9.57,76.33-33,78.61-72.45,1.82-32.59-7.29-49.44-35.32-64-20.05-10.48-37.36-15.49-81.56-24.38-38.51-7.51-49.44-11.16-57.42-18.68-7.06-6.6-7.06-18.45.23-25.74,16.41-16.41,75.19-17.09,120.75-1.14,7.52,2.5,14.36,3.87,15.27,3,1.59-1.82,18-40.33,18-42.6,0-2.06-34.86-12.31-54.45-16C752.83,207.83,711.82,208.29,690.63,213.76Z"/>
    <path d="M884.74,215.35c.69,2.28,16.63,59,35.54,126s34.86,123.72,35.55,125.77c1.14,3.65,4.78,4.1,32.8,4.1h31.67l2.51-8.66c22.56-81.56,45.34-158.11,46.48-155.38.68,1.82,11.39,39.19,23.69,83.16l22.33,79.74,31.9.69,31.89.68,36.23-127.13c19.82-69.95,36.45-128.5,37.14-130.1.68-2.05-5.7-2.73-27.8-2.73h-28.48L1193,222.19c-1.82,6.15-12.76,47.16-24.38,91.13-11.85,44.2-21.87,80.43-22.78,80.43-.68,0-11.39-34.63-23.69-77-12.31-42.15-24.38-83.16-26.89-91.14l-4.33-14.35-23.24.68-23.24.69-26.65,91.13c-14.58,50.13-26.66,91.59-26.89,92.27s-10.48-36.22-22.55-82c-12.31-45.79-23.7-87.48-25.06-92.95l-2.74-9.57H912.08C885.88,211.48,883.6,211.71,884.74,215.35Z"/>
    <path d="M1316.71,341.34V471.21H1376l-.45-129.41-.69-129.18-28.93-.69-29.17-.68Z"/>
    <path d="M1437.47,240v28.48h82V471.21h57V268.44L1617,268l40.33-.68V212.62l-109.82-.69-110-.45Z"/>
    <path d="M2009.33,341.34V471.21H2064V368.68h120.75V471.21h54.68L2239,341.8l-.69-129.18-26.65-.69-26.89-.68V314H2064V211.48h-54.68Z"/>
</svg>