<svg id="Layer_1" data-name="Layer 1" xmlns="http://www.w3.org/2000/svg" viewBox="0 0 924 160.16" fill="#4a9a96">
    <title>Nivel Occulto</title>
    <path d="M924,6c-2.66-.06-5.33-.16-8-.16q-386.78,0-773.55.13c-11,0-21-3.89-31.46-6H87C76.34,2,66.24,6.31,55,6c-18.31-.52-36.65,0-55,0v5c.5,1.64,1.43,3.27,1.43,4.91q.12,66.47,0,132.92c0,1.39-.93,2.78-1.43,4.17v7q456.66,0,913.31.16c5,0,7.33-3,10.69-5.16v-1a22.61,22.61,0,0,1-1-4.5c-.11-29.61-.13-59.22-.22-88.83-.05-16.13-.25-32.26-.25-48.39,0-1.76.93-3.52,1.43-5.28ZM66.24,16.1c2.37-2.57,5.18-5.64,10.4-2.91L66.85,25.36C63.72,21.89,63.86,18.67,66.24,16.1ZM33.67,81.26,32,81.16c-2.26-8-1.48-15.89,1.15-23.66l2.19.13ZM50,61.21c-1.49,11-3.24,22-5,32.93a19,19,0,0,1-1.22,3.37c-4.43-1.7-5.93-3.52-4.59-8.88,2.32-9.27,2.82-19,4-28.53a39.88,39.88,0,0,0,0-4.89C50.28,54.7,50.85,55.06,50,61.21Zm3.13,54a5.35,5.35,0,0,1-.73-3.77c1-5,2.26-9.93,3.63-15.73,8.69,2.82,17.63,5.65,26.49,8.67.82.28,1.6,1.71,1.77,2.71,2,11.77,3.79,23.55,5.81,36.26C74.91,136.65,62.37,128.1,53.15,115.22ZM147.38,97.9a9.07,9.07,0,0,0-3.44,6.28c-.34,9.65-.07,19.31-.06,29,0,9.37-10.43,19.47-19.94,18.56a142.22,142.22,0,0,1-21.51-4c-1.71-.44-3.65-3.24-4-5.21-2.25-12.79-4.2-25.63-6-38.48-.56-4-2.42-6.17-6.27-7.32-8.62-2.55-17.11-5.54-25.73-8.07-3.25-1-4.64-2.33-4.16-5.95.91-6.93,1.14-13.94,2.07-20.87.95-7.08,2.84-13.71,7.53-19.66,7.09-9,13.32-18.7,20-28.07a9.68,9.68,0,0,1,2.6-2.92c6.73-4,21.18-2.24,27.29,2.8,1.53,1.26,4.16,1.14,5.84,2.31,12.43,8.6,20.49,20.43,25.93,35.46-9.1-2-15.31.44-18.2,8.77-2.5,7.19-2.79,14.5,3,20,6.08,5.82,13.16,4,19.76.16C156,88.88,154.57,93,147.38,97.9Zm1.49-29.39c-.05,4.76-2.13,6.36-7.76,6.32s-3.74-4.27-4.43-7.08c.57-3.68-.33-8.32,5.33-8.49C146.93,59.11,149,62,148.87,68.51ZM152.11,125c0-6.8-.45-12.73.22-18.53.26-2.26,3-4.24,4.67-6.34C158.67,108.93,159.75,117.31,152.11,125Zm12.31-39.78L162.17,85c-2.18-11.12-4.36-22.25-6.56-33.46,5.51-.26,8.88,3.7,10.28,13C166.93,71.51,169.58,79,164.42,85.17Zm749.11,69h-6.35l-348-.17q-107-.06-214-.18c-43.16,0-86.32-.3-129.48-.2-4.88,0-8.23-1.15-10.65-5.4-1.37-2.43-3.27-4.55-5.74-7.91l85.34,8.45.28-.82-62.48-28c.05-.36.11-.71.16-1.06l72.1-7.45v16.4h50c.15-2.52.29-5.06.44-7.55.42,0,.69,0,.71,0,2.87,8,9.18,8.18,16.41,8,19.64-.39,39.3-.13,59.4-.13V112.66l1.08-.26c1.54,4.16,2.83,8.44,4.75,12.42A6.45,6.45,0,0,0,432,128c7.15.34,14.33,0,21.49.2,2.66.07,3.77-1,4.58-3.39,2.2-6.61,4.68-13.13,7.05-19.71,2.65,4.22,4.74,8.61,7.78,12.2,10.11,11.92,23.39,13.4,37.83,10.85,3-.54,6.21,0,9.33,0h45.75V101.28l-6.54-1.85V30.86H517V57.35c-12.52-5.43-24.43-5.92-36.2.23.09-.51.18-1,.26-1.52-1.71-.63-3.42-1.8-5.14-1.81-18.16-.13-36.33-.08-54.49-.08h-6.08V30.54c-11.37,0-22.15-.12-32.92.17-1.14,0-2.22,2.47-4.13,4.74H338.7v7.77c-.71-.18-1.23-.19-1.29-.35-2.46-7.29-8-7.85-14.66-7.5-9.11.48-18.26.12-27.65.12V62.68A35.25,35.25,0,0,1,300.29,64c.87.35,2,1.42,2,2.2.17,6.27.09,12.56.09,19.48L224.36,75.31c0-.35-.06-.69-.1-1l66.6-26.7H196.24c1.77-1.51,3-2.51,4.14-3.56,10.59-9.66,21.24-19.23,31.68-29a12.47,12.47,0,0,1,9.33-3.54q116.75.13,233.49.07H913.53ZM349.4,54.81V46.09H379c2.08,7.59,1.64,8.33-6.9,10.7v62.33c-4.79,0-8.8.31-12.73-.15a7,7,0,0,1-4.37-3.14C346.83,102.48,338.9,89,330.89,75.56c-.65-1.09-1.37-2.14-2.92-4.52,0,12.71,0,23.93.09,35.15,0,.85,1.18,2.4,1.84,2.42,7.55.2,5.92,5.28,5.58,10.16H305.36v-8.39c.24-.18.49-.55.75-.55,6.63,0,6.68-4.33,6.59-9.38-.23-14.47-.08-28.95-.08-43.67l-7.37-2.1V45.75c7.24,0,14.48-.18,21.69.19,1.21.06,2.52,2.4,3.42,3.9,8.55,14.26,17,28.56,26.12,43.85V56.6Zm53.69,9.69c.94,0,2.48,2.66,2.51,4.1.2,11.64.18,23.29.07,34.93,0,3.1.26,5,4.07,5.91,5.24,1.24,1.11,6,3.35,9.41H383.63v-9c7.73.54,6.79-4.89,6.69-10a158.66,158.66,0,0,1,.08-17.45c.5-5.64-.77-9.09-7.41-8.46V64.31C389.87,64.31,396.49,64.14,403.09,64.5ZM391,51.26V40.93h13.94V51.26Zm51.89,49.83,7.55-26c-7.42-1.29-4.23-6.35-4.74-10.59H470.4v8.94c-4.58-.08-5.38,3.48-6.58,7-3.93,11.48-8.14,22.86-12,34.35-1,3.08-2.36,4.5-5.95,4.43-10.32-.19-10.31,0-13.71-9.61-3.59-10.18-7.08-20.4-10.91-30.5-.9-2.37-3-4.31-4.48-6.44l-1.42.74V64.66H439.7v8.82L435.26,75C437.71,83.38,440.11,91.61,442.88,101.09Zm74.69,3.61c.88,2,2.2,4,2.56,6.17.25,1.48-.36,4.06-1.42,4.66-10,5.57-20.64,7-31,1.63-9.74-5-13.17-14.09-12.82-24.68A54,54,0,0,1,476,81.61c3-12.24,12.93-19.24,25.55-18.33s19.68,8.32,20.81,21.8c.29,3.44,0,6.92,0,11.39H490.87C492.06,108.46,498.16,110.27,517.57,104.7Zm32.58-5.24a58.47,58.47,0,0,0,.08,6.49c.11,1,1,2.57,1.56,2.6,7.46.35,5.09,5.7,5.26,10.21H528.36c.11-4.14-2.91-9.47,4.89-10.21.67-.06,1.71-1.67,1.72-2.56.1-18.13.07-36.25.07-54.22-8.58-3-8.58-3-7.15-11.52h22.26Zm301-41.75a17.48,17.48,0,0,1-1.83.74c-.43-1.49-.82-2.84-1.19-4.1L839,53.86V40.75H805.79V31H763.3V54.17h-5.87c-17.5,0-35,0-52.5,0-2.42,0-5,1.37-7.23.81-14-3.52-27-2.68-38.85,7.08-1.05-2.05-1.88-3.83-2.84-5.52-8-14.23-20.14-21.85-36.58-22s-29,6.79-37,21.12c-7.91,14.17-8.48,29.31-3.52,44.5,6.14,18.78,21.21,29.17,40.83,29,13.57-.1,24.41-5.67,32.76-16.23,20.25,21,35.77,22.07,58.12,4,6.13,9.11,14.89,12.65,25.69,12.26,14.46-.52,28.94-.79,43.41-1,11-.16,22,0,32.84,0,.4-1.54.7-2.65,1.07-4.06A26.83,26.83,0,0,0,833,129c4.59-.5,9.07-2.06,13.66-2.68a19.7,19.7,0,0,1,8.42.41c9,2.92,18,3.5,27,.52,14.74-4.88,22.88-18.11,23-36.56C905.17,55.82,872.54,46,851.17,57.71ZM650.73,96c-4.57,16.36-17.62,25.23-35,24.15-14.43-.89-26.6-12.9-28.86-28.63-1.45-10.06-1.14-20,3.55-29.27,6.38-12.57,16.8-18.39,30.92-17.64,13.63.71,22.87,7.74,27.77,20.07,2.23,5.6,2.83,11.85,3.93,16.74C652.17,87.16,651.92,91.7,650.73,96Zm35.78,24.13c-16.1,1.21-26.61-7.41-28.1-23.46a47.58,47.58,0,0,1,.53-12.89c1.67-9.06,6.31-16.22,15.59-19,10-3,19.77-2.2,28.37,4.43A5.69,5.69,0,0,1,704.84,73c.24,4.11.09,8.24.09,13a57.2,57.2,0,0,0-7.27,0c-3.9.55-6-.95-6.37-4.84-.35-3.47-2.42-6-5.67-5.69s-7.11,1.41-9.12,3.62c-4.67,5.11-4.73,20.47-.16,25.53,1.88,2.07,6,3.76,8.55,3.16,3.1-.73,5.6-4,8.36-6.23l-.92-1.23h12.79C706.24,110.42,697.81,119.26,686.51,120.11Zm83.33-1.34H750.25c-.29-1.38-.59-2.78-.66-3.14-5.37,1.54-10.5,3.92-15.77,4.32-8.93.67-15.52-4.74-16.85-13.64-1.05-7-.84-14.25-1.1-21.4-.11-3.14,0-6.29,0-9.42l-5.57-1.95V64.65h20.87c0,11.58-.1,22.73,0,33.88.09,7.6,3.81,10.75,10.67,9.29,4.14-.89,6.77-2.9,6.47-7.86a175.25,175.25,0,0,1,0-18.48c.21-4.37-.31-7.69-6-7.54V64.59h21V82.06c0,7.5-.06,15,.07,22.49,0,1.33.71,3.75,1.28,3.81C772,109.09,769.7,114.25,769.84,118.77Zm33.52.1h-28.3c-1.86-6.69-1.43-7.48,4.31-10.28a4.55,4.55,0,0,0,1.79-3.48c.12-16.82,0-33.64.14-50.46.06-5.49-4.69-3.35-7.44-5.4V40.56H796.4v5.67c0,19,.05,38,0,57,0,3.33.36,5.27,4.37,6.26C806.1,110.78,802.36,115.44,803.36,118.87Zm20,.09c-6.29-2.3-8.38-7.73-8.45-14-.1-9.78,0-19.56,0-29.61l-7.64-.4V64.51L814.8,64V51.34h15V63.91l9.07.61V74.91l-8.82.47c0,9.63-.2,19.06.21,28.47.06,1.46,2.75,3.11,4.54,4.06,1.16.62,2.92.12,4.94.12.43,3.38.85,6.76,1.32,10.51C835,120.75,829.06,121.05,823.33,119Zm69-11.69c-4.35,9.25-12.31,13-25.49,12.88-14.19,0-24.65-13.41-22.37-32.75,2.08-17.69,14.27-26.75,31.73-23.56a21.08,21.08,0,0,1,15.58,11.3C897.22,85.68,897.29,96.61,892.29,107.27ZM93.49,51.8C83.35,51.6,77,58.5,76.8,69.9c-.16,10,5.21,16.46,13.82,16.58,10.76.14,18.31-7.13,18.51-17.83C109.29,59.88,101.94,52,93.49,51.8ZM90.83,78.24c-4.07-.15-5.93-3-5.76-8.72S88.31,60,93,60.09c3.38.09,7.67,4.88,7.62,8.5A9.51,9.51,0,0,1,90.83,78.24Zm408.64-3.07c-4.9,0-8.37,4.47-8.22,10.76h16.28C507.24,78.72,504.5,75.17,499.47,75.17ZM605,65.15c-5.41,11.2-5.16,22.85-.09,34.18,2.6,5.81,7.42,8.67,13.9,8.75,6.79.09,12.31-2.41,14.88-8.74,2.14-5.28,3.06-11,4.77-17.51C636.66,76,635.73,69.4,632.66,64,626.51,53.14,610.44,53.92,605,65.15Zm19.45,29.37a6.17,6.17,0,0,1-11.16-.24c-1.68-3.84-2.19-8.2-3.18-12.2,1-4.29,1.38-8.33,2.91-11.88a7.61,7.61,0,0,1,5.49-3.89c2-.09,5.13,1.55,6,3.29A27.56,27.56,0,0,1,624.47,94.52ZM862.07,80c-1.69,3.49-2.27,7.52-3.42,11.54,1.11,4.11,1.61,8.35,3.37,12,3,6.19,11.89,6.41,15.7.76s3.82-19.14-.08-24.93S865.14,73.71,862.07,80Z"/>
</svg>