<svg id="Layer_1" data-name="Layer 1" xmlns="http://www.w3.org/2000/svg" viewBox="0 0 411.88 89.52" fill="#4a9a96">
    <title>score</title>
    <path d="M39.19,22.6C47,23.33,52.55,27.69,56.44,34l16.1-15.8c-.2-.32-.38-.68-.63-1C58-1.57,28.9-5.62,10.39,8.64a21.24,21.24,0,0,0-8.78,18.2C1.93,36.19,6.66,43,15.22,47,22,50.23,28.8,53.36,35.58,56.53c4.41,2.06,8.81,4.13,13.29,6.24-2.77,3.14-8.16,4.82-14.3,4.2-8.9-.91-14.93-5.94-18.86-14.18-4.91,5-9.58,9.82-14.43,14.49C-.31,68.82-.4,69.84.93,71.59a44.8,44.8,0,0,0,61.56,9.7,21.08,21.08,0,0,0,9.35-17.65c.08-9.79-4.6-16.85-13.37-21.06-10.58-5.07-21.25-10-31.88-14.93-.71-.33-1.4-.7-2.21-1.11C27.78,23.43,32.74,22,39.19,22.6Zm68.74,37.13a22.5,22.5,0,0,1,.27-30.06c7.69-8.28,21.38-10.48,32-1L155.8,13C140.58-2.87,112-5.76,92.87,13.36a44.51,44.51,0,0,0,2.42,65.19c19.56,17.13,47.39,12.52,60.72-2.26L140.8,60.41C129.79,70.42,115.68,68.29,107.93,59.73ZM333.38,8.35A45.35,45.35,0,0,0,309.64.11c-8.55-.47-16.53,1.81-24.33,5.77-.12-2.25-.2-3.95-.29-5.67H263.1V89.42h22.07c0-1.22,0-2.2,0-3.19q0-20.36,0-40.73c0-16.3,15-26.92,30.32-21.5a2.47,2.47,0,0,0,3.07-.58c4.25-4.35,8.59-8.61,12.88-12.91C332.07,9.88,332.62,9.19,333.38,8.35ZM184,48.06C182.59,24.7,194.75,9.6,216.39,1.49c-14-4.29-33.76.64-45.42,15.36a44.86,44.86,0,0,0-2.81,52.05C178.33,85,197.61,92.75,216.85,88.21,197.35,81.41,185.29,68.48,184,48.06ZM234.72,12a31.83,31.83,0,0,0-15.57.56,33.07,33.07,0,0,0-15.88,10.06c7.13-.56,12.85,1.3,17.65,5.61a21.57,21.57,0,0,1,7.4,16.6,21.31,21.31,0,0,1-5.49,14.63A22.06,22.06,0,0,1,204,67.11c-.06.31-.12.41-.09.46a2.83,2.83,0,0,0,.41.61c8.22,8.33,18.22,11.33,29.64,9.65a9,9,0,0,0,4.79-2.72c16.1-17.06,15.78-44.58-.66-61.3A7.12,7.12,0,0,0,234.72,12ZM356.63,59.5c-7.07-7.85-7.28-20-.72-28.53,4.91-6.35,15.46-10.62,23.14-7.29L357.93,44.49,374,60.55l37.87-38.36c-8.34-15.82-28.71-25-47-21.28C345.54,4.84,330.59,21.19,329,40.17c-1.73,20.54,9.52,39,28.17,46.3,17.51,6.85,37.18,1.53,47.5-9.9L389.22,61C375.85,69.52,365.23,69,356.63,59.5Z"
          transform="translate(0 0)"/>
</svg>