<svg id="Layer_1" data-name="Layer 1" xmlns="http://www.w3.org/2000/svg" viewBox="0 0 1339.11 230.49" fill="#4a9a96">
    <title>Sector</title>
    <path d="M943.5.6c-27.7,1.7-55.2,7.7-70.7,15.5L867,19V2.3l-3.2-.5c-1.8-.2-75.7-.1-164.3.2-174.2.7-167,.5-188.9,6.1-16.3,4.2-35.4,13.9-43,21.8-1.7,1.7-3.3,3.1-3.8,3.1s-.8-7-.8-15.6V1.9l-66.2.4c-55.7.3-67.6.7-74.3,2-16.5,3.3-29,8.3-41.4,16.5-5.8,3.8-23.2,20.4-26.9,25.7l-2.1,3-.1-14c0-7.7-.3-18.3-.6-23.6l-.7-9.6-15.6-.5c-8.6-.3-48.9-.2-89.6.2C63.7,2.8,61.2,2.9,44,9.4,27.5,15.5,14.2,27.3,7.1,42.2,1.5,54.1-.4,62.8.2,74.7c.9,16.1,6.8,29,18.9,41.2,7.9,8,14.8,12.2,26,16,16.7,5.7,23.1,6.3,74.9,7.1,51.4.8,55.1,1.2,63.3,6.6,5.5,3.6,7.7,7.8,7.7,14.5,0,4.1-.6,6.5-2.2,9-3,4.5-11.5,8.6-20.3,9.9-4.1.6-37.4,1-81.2,1H13v50H98.9c52.9,0,89.9-.4,96.2-1.1,26.7-2.7,43.3-10.7,56.5-27.1,3.2-4,6.1-7.7,6.6-8.2s3.9,2.1,8,6c12.2,11.7,23,17.9,40.4,22.9,20.4,5.9,43.1,7.4,113.2,7.5H463V200l8,6.3c16.6,13.2,35.5,19.8,64.9,22.7,5.7.5,36.7,1,70.2,1H666l.2-22c.1-12.1.2-23.2.2-24.8l.1-2.7-53-.1c-56.6,0-62.8-.5-75.7-5.4-12.1-4.6-20.5-14.2-24.7-28.4l-2.3-7.6H434.9l.6,3.7a141.94,141.94,0,0,0,8.5,28.4l3.7,8.7-17.6.4c-25.6.7-71.1-.8-80.1-2.5-20.4-4.1-31-11.7-36.1-26.2-2.7-7.8-4.3-27.4-3.6-46,.9-23.1,3.1-31.5,10.3-39.5,9.4-10.4,18.6-12.7,55-14.1,27.8-1.1,71.7-.9,72.9.2.3.4-.8,3.4-2.4,6.8C441.5,68,436,84.3,436,88.9c0,.8,10.3,1.1,37.1.9l37.1-.3,2.8-7.8c1.5-4.3,4.1-9.5,5.7-11.5,4.3-5.3,12.5-10.8,19.9-13.2,14.2-4.8,17.4-4.9,95.1-5H707l.2,18.7.3,18.8,34.8.3L777,90V52h27.5c15.1,0,27.5.1,27.5.3s-1.6,4.1-3.7,8.8c-3.6,8.3-8.3,23.7-8.3,27.2,0,1.6,2.2,1.7,37.2,1.5l37.3-.3,2.7-7.9c4.4-12.8,10.5-19.8,22.2-25.8,10.6-5.3,19.3-7.1,36.6-7.2,35.1-.2,52.6,9.5,61.1,34.1,1,3.1,2.5,6.1,3.2,6.5s29.4.8,64,.8H1147V52l2.5-.6c4.1-1,85.5.4,92,1.6,13.1,2.6,17.8,7.4,17.3,17.7-.5,7.5-2.5,10.7-8.9,13.9-7.9,4.1-15.5,4.9-45.9,4.9h-28.5l-.3,24.8L1175,139h7.7c13.7.1,33.9,1.8,40.4,3.5,17.1,4.5,26,13.5,30.3,31,.8,3.3,2.6,15,4,26s3.2,22.4,4.1,25.2l1.6,5.3h76.1l-.5-2.7c-.2-1.6-1.4-6.4-2.5-10.8s-3-16.4-4.2-26.6c-2.3-21.1-4.5-31-9.1-40.5-4-8.5-14-19.1-21.9-23.3-3.3-1.8-6-3.4-6-3.5a84.22,84.22,0,0,1,8-5q31.05-18,31-48.4c0-16.5-5.7-29.9-18-42.2-12.1-12.2-26.9-18.5-53-22.7-9.1-1.4-22.3-1.7-97.7-2L1078,1.9l-.2,22.2-.3,22.1-5-6.2c-12.9-16.1-38.9-29.7-67.2-34.9C986.4,1.5,960.1-.4,943.5.6ZM235.7,51.7l14.2.6-4.4,8.6a117.93,117.93,0,0,0-10.6,33.2l-1.2,7.8-3.6-1.8c-6.6-3.4-20.5-7.2-31.6-8.8-8.1-1.1-22.3-1.5-53.5-1.7-44.9-.3-53.2-1-60.9-4.9-6.8-3.4-8.6-6.5-8.6-14.7s1.8-11.4,9.1-15c4.6-2.3,6-2.5,27.4-3.1C145,51.1,219.3,50.9,235.7,51.7Z"
          transform="translate(-0.09 -0.33)"/>
    <path d="M319,113.9c0,21.8.2,25,1.6,25.5.9.3,16.2.6,34,.6H387V89H319Z" transform="translate(-0.09 -0.33)"/>
    <path d="M707.6,145.1c-.3,3.4-.6,23.9-.6,45.5V230h70V139H708.3Z" transform="translate(-0.09 -0.33)"/>
    <path d="M819.6,143.2c.9,6.5,5.9,20.8,10,29,13.5,27.1,36.2,43.4,73.1,52.6,19.4,4.9,36.7,6.5,64.8,5.9,25.1-.5,33.5-1.5,51.3-6.2,42.4-11.2,69.3-40.1,76.6-82.3l.6-3.2h-75.8l-2.6,8.3c-5.8,18.7-16.3,28.5-36.4,33.9-10.2,2.7-35,3-46.2.5-17.4-3.9-29.8-13.5-35.8-27.9a70.82,70.82,0,0,1-3.7-11.1l-.7-3.7H819Z"
          transform="translate(-0.09 -0.33)"/>
</svg>