<svg id="Layer_1" data-name="Layer 1" xmlns="http://www.w3.org/2000/svg" viewBox="0 0 208.33 210.57" fill="#d13715">
    <title>Social_Steam</title>
    <path class="cls-1"
          d="M104,0C49.17,0,4.27,42.65,0,96.84l55.92,23.33A29.27,29.27,0,0,1,72.54,115c.55,0,1.1,0,1.65,0L99.06,78.67v-.52a39.35,39.35,0,1,1,39.34,39.71h-.89L102,143.38v1.41a29.51,29.51,0,0,1-58.48,5.87L3.59,134C16,178.18,56.21,210.57,104,210.57c57.62,0,104.33-47.14,104.33-105.28S161.6,0,104,0"/>
    <path class="cls-1"
          d="M65.38,159.76l-12.81-5.34A22,22,0,0,0,93,153.33a22.35,22.35,0,0,0,0-17.11,22,22,0,0,0-28.3-12.39l13.24,5.53a16.51,16.51,0,0,1,8.78,21.53,16.25,16.25,0,0,1-21.19,8.93l-.15-.06"/>
    <path class="cls-1"
          d="M118.75,78.1A19.7,19.7,0,1,1,138.45,98a19.7,19.7,0,0,1-19.7-19.9h0m45.87,0A26.22,26.22,0,1,0,138.4,104.6a26.22,26.22,0,0,0,26.22-26.43"/>
</svg>