<?xml version="1.0" encoding="utf-8"?>
<!-- Generator: Adobe Illustrator 23.0.1, SVG Export Plug-In . SVG Version: 6.00 Build 0)  -->
<svg version="1.1" id="Layer_1" xmlns="http://www.w3.org/2000/svg" xmlns:xlink="http://www.w3.org/1999/xlink" x="0px" y="0px"
	 viewBox="0 0 44.66 44.61" style="enable-background:new 0 0 44.66 44.61;" xml:space="preserve" fill="#4a9a96">
<path class="st0" d="M44.61,21c-0.25-4.71-2.02-9.21-5.04-12.83c-3.12-3.84-7.44-6.52-12.27-7.6c-2.04-0.48-4.14-0.66-6.23-0.52
	c-6.05,0.3-11.7,3.09-15.63,7.69c-2.51,2.84-4.23,6.29-5,10C0.2,18.93,0.05,20.13,0,21.35c0,0.07,0,0.13,0,0.2v1.6
	c0,0.22,0,0.43,0.05,0.64c0.23,3.98,1.55,7.81,3.82,11.09c3.14,4.68,7.96,7.98,13.46,9.21c1.2,0.29,2.43,0.46,3.66,0.52h0.12h2.44
	h0.5c3.22-0.22,6.34-1.17,9.14-2.76c5.43-2.99,9.35-8.13,10.81-14.16C44.56,25.5,44.76,23.24,44.61,21z M36.11,15.46
	c-0.66,0.97-1.48,1.83-2.42,2.54c-0.11,0.07-0.16,0.19-0.15,0.31c0.1,3.75-1.16,7.41-3.54,10.3c-2.13,2.7-5.17,4.54-8.55,5.18
	c-1.49,0.3-3.02,0.39-4.54,0.26c-2.42-0.2-4.76-0.99-6.82-2.29c-0.02-0.01-0.05-0.03-0.06-0.05c1.39,0.14,2.8,0.03,4.15-0.35
	c1.35-0.38,2.62-1.01,3.73-1.88c-2.29-0.06-4.29-1.56-5-3.73c0.63,0.1,1.28,0.1,1.91,0c0.16-0.02,0.32-0.06,0.47-0.11
	c-2.52-0.54-4.31-2.78-4.29-5.35c0.75,0.41,1.58,0.64,2.43,0.67c-1.14-0.77-1.94-1.94-2.24-3.28c-0.32-1.32-0.11-2.72,0.58-3.89
	c2.74,3.35,6.76,5.39,11.08,5.62c0-0.27-0.08-0.52-0.1-0.77c-0.16-1.63,0.45-3.24,1.65-4.36c2.12-2.04,5.48-1.99,7.53,0.11
	c0.07,0.07,0.17,0.1,0.26,0.07c1.1-0.23,2.15-0.63,3.12-1.19l0.13-0.07c-0.19,0.62-0.5,1.19-0.9,1.69c-0.39,0.49-0.87,0.92-1.4,1.25
	c1.04-0.12,2.05-0.4,3-0.82C36.13,15.36,36.12,15.41,36.11,15.46z"/>
</svg>
