<svg id="Layer_1" data-name="Layer 1" xmlns="http://www.w3.org/2000/svg" viewBox="0 0 679.12 210.57" fill="#1d3f53">
    <title>Steam</title>
    <path class="cls-1"
          d="M104,0C49.17,0,4.27,42.65,0,96.84l55.92,23.33A29.23,29.23,0,0,1,72.54,115c.55,0,1.1,0,1.65.05L99.06,78.67v-.52a39.35,39.35,0,1,1,39.34,39.71l-.89,0L102,143.38q0,.7,0,1.41a29.51,29.51,0,0,1-58.48,5.87L3.59,134C16,178.18,56.21,210.57,104,210.57c57.62,0,104.33-47.14,104.33-105.28S161.6,0,104,0"/>
    <path class="cls-1"
          d="M65.38,159.76l-12.81-5.34A22.05,22.05,0,0,0,93,153.33a22.39,22.39,0,0,0,0-17.11,22,22,0,0,0-28.3-12.39l13.24,5.53a16.51,16.51,0,0,1,8.78,21.53,16.26,16.26,0,0,1-21.34,8.87"/>
    <path class="cls-1"
          d="M118.75,78.1A19.7,19.7,0,1,1,138.45,98a19.79,19.79,0,0,1-19.7-19.88m45.87.05A26.22,26.22,0,1,0,138.4,104.6a26.37,26.37,0,0,0,26.22-26.45"/>
    <path class="cls-1"
          d="M317.89,73,311.1,85a33.74,33.74,0,0,0-18.48-5.9c-7.06,0-11.43,3-11.43,8.24,0,6.42,7.77,7.91,19.3,12.09,12.4,4.43,19.53,9.63,19.53,21.09,0,15.68-12.22,24.49-29.78,24.49-8.56,0-18.89-2.23-26.83-7.1l4.94-13.34a46.52,46.52,0,0,0,21,5.48c9.27,0,13.67-3.45,13.67-8.56,0-5.83-6.72-7.59-17.56-11.21-12.36-4.17-20.93-9.63-20.93-22.32,0-14.3,11.36-22.52,27.69-22.52,11.39,0,20.54,3.64,25.62,7.53"/>
    <polygon class="cls-1"
             points="370.89 80.61 370.89 143.73 354.93 143.73 354.93 80.61 331.75 80.61 331.75 66.8 394 66.8 394 80.61 370.89 80.61"/>
    <polygon class="cls-1"
             points="427.66 80.57 427.66 97.91 458.22 97.91 458.22 111.73 427.66 111.73 427.66 129.79 463.11 129.79 463.11 143.73 411.7 143.73 411.7 66.8 463.11 66.8 463.11 80.57 427.66 80.57"/>
    <path class="cls-1"
          d="M513.5,85.15,503.09,116h21ZM498.75,128.8l-5.05,14.93H477l28.58-76.94h16.07L551,143.73H533.71l-5.15-14.93Z"/>
    <polygon class="cls-1"
             points="632.96 96.53 612.1 141.49 603.09 141.49 582.56 96.94 582.56 143.73 567.27 143.73 567.27 66.8 582.52 66.8 608.15 122.33 632.86 66.8 648.25 66.8 648.25 143.73 632.96 143.73 632.96 96.53"/>
    <path class="cls-1"
          d="M666.76,76h1.86a1.73,1.73,0,0,0,1.92-1.72c0-1-.51-1.59-1.92-1.59h-1.86Zm2-4.92c2.74,0,3.65,1.46,3.65,3A3.15,3.15,0,0,1,670.49,77l2.45,4.63h-2l-2.07-4.11h-2.13v4.11h-1.67V71Zm-9,5.47a8.58,8.58,0,0,0,8.81,9c4.83,0,8.76-3.48,8.76-9s-3.93-9-8.76-9a8.57,8.57,0,0,0-8.81,9m19.35,0a10.56,10.56,0,1,1-21.12,0,10.56,10.56,0,1,1,21.12,0"/>
</svg>