<svg id="Layer_1" data-name="Layer 1" xmlns="http://www.w3.org/2000/svg" viewBox="0 0 836.55 147.28" fill="#4a9a96">
    <title>Vortex</title>
    <path d="M190.37.21c18.48-1.67,30.15,6.51,36.92,26.32,4.3,12.58,7.28,34.22,6.61,47.54a316.81,316.81,0,0,1-3,31.88c-1.53,11.68-5.08,23.58-14.47,31.43-10.1,8.44-21.7,12.28-35.61,7.67-13.11-4.35-20.52-13.16-24.57-25.38-2.91-8.76-2.82-12.57-4.8-21.6-.56-2.56-1.52-16-1.49-18.79.11-10.16-.74-15.14.36-25.19,1.77-16.29,3.75-32.89,17.11-44.9,4.24-3.82,9-6,14.91-7.68A35.4,35.4,0,0,1,190.37.21Zm30.69,46.33A60.79,60.79,0,0,0,211.6,20c-4-6.23-10.26-8.6-18.47-9.21-11.38-.83-18.63,3.49-23.32,12.57-4.9,9.5-7.32,24.91-7.54,26.55-.45,3.41-1,16-.83,19.38.31,8-.17,12.79.46,20.8.34,4.31.74,20.47,9.68,36.44,3.31,5.92,9.42,8,16.83,9.42,13,2.49,23.27-5.93,27.28-16.68C225.16,81.51,223.07,60.1,221.06,46.54Z"/>
    <path d="M313.19,73.39c0-21.65.59-49.73.34-71.39A227,227,0,0,1,344,2.11c7.12.71,14.37.85,21.23,4.36,8.23,4.21,13.3,11,16.34,18.81,7.22,18.64.94,41.73-17,53-3.06,2.13-7,2.5-6,4.55.34.74,35.91,64.32,35.91,64.32s-2.42,0-12.1.14c-9.46-17.66-23.1-43.29-33.17-60.63-1.38-2.37-3-3.56-5.85-3.41a122.72,122.72,0,0,1-14.48,0c-4.35-.3-5.82,1.14-5.76,5.59.22,16.49.66,40.72.66,57.22-5.4,1.11-5.77.55-10.48.33C313.14,124.37,313.19,95.38,313.19,73.39ZM366.29,64c7.72-10,8-22.36,5.7-33.72-1.65-8.12-6.44-15.57-15.32-17-9.9-1.66-33.84-2.51-33.65-1.77,0,19-.22,41.93-.22,60.92C322.8,72.86,357.25,76.3,366.29,64Z"/>
    <path d="M39.07,127.23C39.83,124.67,65.53,1.42,65.53,1.42s6.7.19,12.09.19c-.79,5-2.09,11-3.12,16-1.72,8.31-26.34,126.07-26.63,128.52H31.09C29.44,138.47-1.26,1.52,0,.86c2.79,0,11.82.25,11.82.25S38.62,127.16,39.07,127.23Z"/>
    <path d="M539.78.9c-.2,0-.42,0-.64,0-7.77.27-18.55.13-26.32.12-18.77,0-41.54.13-60.3-.24A11.33,11.33,0,0,0,450,1v9.39c.75,0,1.51-.1,2.21-.09,11.11.05,26.22,0,37.68,0,.11,2.16.25,3.78.25,5.4,0,22.15,0,46.3,0,68.46,0,18.09-.06,44.19.11,62.28h10.91c0-.11,0-.22,0-.34,0-28,0-64,0-91.95V10.3c12,0,26.46-.07,37.91,0h.68Z"/>
    <path d="M683.57,136.25q-16.3.19-32.61,0c-4.26,0-22.08.09-21.9-.28-.1-15,.23-40.19.06-55.18,0-3.66,1.17-4.33,4.65-4.2,10.73.43,21.47.46,32.2.48.24,0,.45,0,.67,0V67.25h-.33c-10.82.13-21.65,0-32.48.07-2.54,0-4.67-.08-4.66-3.54.06-17,0-35.93,0-53.48,18.39,0,36,0,53.68,0h.7V.94h-.22l-61-.12c-3.11,0-4.41,1.37-4.3,4.62.21,6,0,14,0,20,0,37.82,0,77.64-.06,115.45,0,3.36.62,5.49,4.52,5.45,7.38-.09,14.77,0,22.15,0,12.94,0,25.88-.18,38.81.11Z"/>
    <path d="M835.59.58h-12.9c-4.55,10.85-19.55,54.8-22.72,61.51C797.49,58.4,777.38,1.17,777.1.58H764.35c3.18,6.83,29.51,72.56,29.51,72.56s-27.62,65.44-30.87,73.3H775.5c3.66-7.87,20.13-53.26,24.35-62.51.55,0,23,59.9,24.14,62.51h12.56c-9.08-19.18-29.91-73.76-29.91-73.76S827.62,17.77,835.59.58Z"/>
</svg>