<?xml version="1.0" encoding="utf-8"?>
<!-- Generator: Adobe Illustrator 23.0.1, SVG Export Plug-In . SVG Version: 6.00 Build 0)  -->
<svg version="1.1" id="Isolation_Mode" xmlns="http://www.w3.org/2000/svg" xmlns:xlink="http://www.w3.org/1999/xlink" x="0px"
	 y="0px" viewBox="0 0 248.3 167.8" style="enable-background:new 0 0 248.3 167.8;" xml:space="preserve">
<style type="text/css">
	.st0{fill:#DEE2CB;}
	.st1{fill:#59988F;}
	.st2{enable-background:new    ;}
</style>
<title>8</title>
<ellipse class="st0" cx="68.3" cy="89.8" rx="24.2" ry="0.7"/>
<ellipse class="st0" cx="174.4" cy="89.8" rx="23.2" ry="0.7"/>
<path class="st1" d="M77.3,167.8l-7-2.3c8.7-10.5,19.7-13.2,28.9-6.9c-1.8,5.2-6.7,6.8-10.9,9.2H77.3z"/>
<path class="st1" d="M161.3,167.8c-4.9-2-9.9-3.7-12.2-9.1c8.4-6.7,18.6-4.4,29.2,6.6l-8.9,2.5H161.3z"/>
<path class="st1" d="M197.3,6.8c3.7,2.2,7.6,4.1,11.1,6.6c5.6,4.1,8.4,9.6,7.4,17.2c-6.8-0.2-12-2.9-14.7-8.7
	c-2.2-4.8-3.3-10-4.8-15.1L197.3,6.8z"/>
<path class="st1" d="M52.3,6.8c-1.3,4.4-2.3,9.1-4.1,13.3c-2.8,6.7-7.9,10.4-15.7,10.7c-1.2-7.7,1.9-13.2,7.7-17.4
	c3.5-2.5,7.4-4.4,11.1-6.6L52.3,6.8z"/>
<path class="st1" d="M199.5,104.7c7.6,12.6,7.6,22,0.2,29.8C191.2,129,191,117.8,199.5,104.7z"/>
<path class="st1" d="M48.8,134.8c-7.7-6.9-7.8-17.3-0.3-29.4C57.1,115.1,57.2,128,48.8,134.8z"/>
<path class="st1" d="M213,71.3c10.4,6.9,14.3,19.3,8.7,28C211.8,95,208.8,85.2,213,71.3z"/>
<path class="st1" d="M35.2,71.1c4.1,14.5,1.4,23.4-8.5,28.5C20.7,91.7,23.9,80.5,35.2,71.1z"/>
<path class="st1" d="M208.8,91.8c9.8,10.8,11.6,20,5.9,29C205.2,117.6,202.7,105.9,208.8,91.8z"/>
<path class="st1" d="M18,87.2C7.5,84.5,1.7,74.7,2.9,62C16.3,67.4,22.2,78.4,18,87.2z"/>
<path class="st1" d="M33.9,121.5c-6.1-9.4-4.4-18.8,5.3-29.2C45.6,103.5,43.6,115.3,33.9,121.5z"/>
<path class="st1" d="M174.2,132.3c-2.6,12.6-12.4,20.9-22.5,18.9C152.1,140.2,160.4,133.2,174.2,132.3z"/>
<path class="st1" d="M43,134c-9.2,6.1-22-0.8-27.9-9.6C28.8,120.3,38.9,123.8,43,134z"/>
<path class="st1" d="M221.7,50.2c-9.8,2-19.1-7.1-21.1-20.6C214.1,32.1,221.7,39.4,221.7,50.2z"/>
<path class="st1" d="M179.6,145.3c-6.5-8.6-1.4-20.5,9.2-28C193,128.9,189.4,140.1,179.6,145.3z"/>
<path class="st1" d="M68.7,145.5c-9.8-4.8-13.3-15.3-9.5-27.9C70.4,124.9,74.2,135.8,68.7,145.5z"/>
<path class="st1" d="M48,29.7c-4.4,15.6-10.7,21.7-21.1,20.8C24.3,41.2,35.2,31.7,48,29.7z"/>
<path class="st1" d="M230.9,65.2c-6.8-8.3-4.6-19.5,5.4-28.7C242.2,48,239.9,60.1,230.9,65.2z"/>
<path class="st1" d="M73.7,132.3c11.9,1,24.1,8,22.5,19.1C87.4,154.1,77.8,145.7,73.7,132.3z"/>
<path class="st1" d="M36,51.2c0.6,14.9-3.8,22.8-14.3,25.6C16.9,68.6,23.3,57,36,51.2z"/>
<path class="st1" d="M226.8,76.7C216,74,210.3,63.9,212.5,51.2C224.9,56.9,230.8,67.5,226.8,76.7z"/>
<path class="st1" d="M230,86.8c-3-10.6,1.4-18.1,15-25.2C247.6,72.7,240.6,84.8,230,86.8z"/>
<path class="st1" d="M0,86c13.9,0.1,22.3,6.2,24,17C15.3,106.8,5.5,99.9,0,86z"/>
<path class="st1" d="M29.4,119.9c-10.4,2.7-18.3-1.8-25.6-14.3C15.2,102.2,27.7,109.1,29.4,119.9z"/>
<path class="st1" d="M188.5,145.2c4.4-9.2,17.1-10.5,29.3-4C207.6,150.4,196.5,151.9,188.5,145.2z"/>
<path class="st1" d="M199.3,156.4c-13.5,6.1-24,4.5-29.6-4.2C177.6,145,186.9,146.2,199.3,156.4z"/>
<path class="st1" d="M78.4,152.4c-5.4,8.6-16.2,10.2-28.9,4.4C57,147.1,70.6,145,78.4,152.4z"/>
<path class="st1" d="M224.6,42.3c-8.4-7.1-8.6-17.5-0.6-29.4C232.2,23.2,232.4,35.4,224.6,42.3z"/>
<path class="st1" d="M248.3,85.7c-5.8,13.9-13.7,19.7-23.8,17.6C223.9,92.1,236.1,86,248.3,85.7z"/>
<path class="st1" d="M17.4,65.6c-9.2-5.9-11.2-17-5.7-29.2C21.9,46.1,24,56,17.4,65.6z"/>
<path class="st1" d="M24,12.8c8.2,12.9,7.9,23.1-0.5,29.7C15.2,36.2,17,23.5,24,12.8z"/>
<path class="st1" d="M244.2,105.2c-5.8,12.2-17.4,18.5-25.3,14.5C220.1,109.2,231,102.9,244.2,105.2z"/>
<path class="st1" d="M233.3,124c-8.3,11.1-18.9,14.7-27.9,9.8C208.4,124,217.9,120.6,233.3,124z"/>
<path class="st1" d="M30.3,141.3c13.6-6.3,22.8-5.1,29.4,3.7C52.9,152.3,41.1,150.9,30.3,141.3z"/>
<g class="st2">
	<path class="st0" d="M108.1,12.7v1c0,3-0.9,4.8-2.9,5.8c2.4,0.9,3.4,3.1,3.4,6.1V28c0,4.4-2.3,6.8-6.8,6.8h-7.1V6.1h6.8
		C106.1,6.1,108.1,8.3,108.1,12.7z M99.1,10.2v7.6h1.8c1.7,0,2.7-0.7,2.7-3v-1.6c0-2-0.7-3-2.3-3H99.1z M99.1,21.9v8.8h2.6
		c1.5,0,2.3-0.7,2.3-2.8v-2.5c0-2.7-0.9-3.5-2.9-3.5H99.1z"/>
	<path class="st0" d="M115.8,18.2h6.2v4.1h-6.2v8.4h7.8v4.1h-12.3V6.1h12.3v4.1h-7.8V18.2z"/>
	<path class="st0" d="M132.4,5.8c4.4,0,6.6,2.6,6.6,7.2v0.9h-4.3v-1.2c0-2-0.8-2.8-2.3-2.8s-2.3,0.8-2.3,2.8c0,5.9,8.8,7,8.8,15.2
		c0,4.6-2.3,7.2-6.7,7.2c-4.4,0-6.7-2.6-6.7-7.2v-1.8h4.3v2c0,2,0.9,2.8,2.3,2.8s2.3-0.7,2.3-2.8c0-5.9-8.8-7-8.8-15.2
		C125.8,8.4,128,5.8,132.4,5.8z"/>
	<path class="st0" d="M140.3,6.1h13.9v4.1h-4.7v24.6h-4.5V10.2h-4.7V6.1z"/>
</g>
<g class="st2">
	<path class="st0" d="M70.3,41.1h7.1c4.5,0,6.7,2.5,6.7,7.1v14.5c0,4.6-2.2,7.1-6.7,7.1h-7.1V41.1z M74.8,45.2v20.5h2.5
		c1.4,0,2.3-0.7,2.3-2.8V48c0-2-0.9-2.8-2.3-2.8H74.8z"/>
	<path class="st0" d="M91.5,53.2h6.2v4.1h-6.2v8.4h7.8v4.1H87V41.1h12.3v4.1h-7.8V53.2z"/>
	<path class="st0" d="M108.1,40.8c4.4,0,6.6,2.6,6.6,7.2v0.9h-4.3v-1.2c0-2-0.8-2.8-2.3-2.8s-2.3,0.8-2.3,2.8c0,5.9,8.8,7,8.8,15.2
		c0,4.6-2.3,7.2-6.7,7.2c-4.4,0-6.7-2.6-6.7-7.2v-1.8h4.3v2c0,2,0.9,2.8,2.3,2.8c1.4,0,2.3-0.7,2.3-2.8c0-5.9-8.8-7-8.8-15.2
		C101.5,43.4,103.7,40.8,108.1,40.8z"/>
	<path class="st0" d="M123.3,58.4l-1.4,2.6v8.8h-4.5V41.1h4.5v12.5l5.9-12.5h4.5L126,53.9l6.3,15.9h-4.6L123.3,58.4z"/>
	<path class="st0" d="M133,41.1H147v4.1h-4.7v24.6h-4.5V45.2H133V41.1z"/>
	<path class="st0" d="M148.6,48c0-4.6,2.4-7.2,6.8-7.2c4.4,0,6.8,2.6,6.8,7.2v14.9c0,4.6-2.4,7.2-6.8,7.2c-4.4,0-6.8-2.6-6.8-7.2V48
		z M153.1,63.2c0,2,0.9,2.8,2.3,2.8c1.4,0,2.3-0.8,2.3-2.8V47.7c0-2-0.9-2.8-2.3-2.8c-1.4,0-2.3,0.8-2.3,2.8V63.2z"/>
	<path class="st0" d="M178.5,48.2V52c0,4.6-2.2,7.1-6.7,7.1h-2.1v10.8h-4.5V41.1h6.6C176.3,41.1,178.5,43.6,178.5,48.2z M169.7,45.2
		v9.7h2.1c1.4,0,2.2-0.7,2.2-2.7v-4.3c0-2-0.8-2.7-2.2-2.7H169.7z"/>
</g>
<g class="st2">
	<path class="st0" d="M93.6,86.4v11.4h-2.2V82h3.1l2.5,9.4V82h2.2v15.7h-2.5L93.6,86.4z"/>
	<path class="st0" d="M100.8,85.8c0-2.5,1.3-4,3.8-4c2.4,0,3.8,1.4,3.8,4V94c0,2.5-1.3,4-3.8,4c-2.4,0-3.8-1.4-3.8-4V85.8z
		 M103.3,94.1c0,1.1,0.5,1.6,1.3,1.6c0.8,0,1.3-0.4,1.3-1.6v-8.5c0-1.1-0.5-1.6-1.3-1.6c-0.8,0-1.3,0.4-1.3,1.6V94.1z"/>
	<path class="st0" d="M115.2,93.2l1.7-11.2h3.4v15.7H118V86.5l-1.7,11.3h-2.3l-1.8-11.1v11.1h-2.2V82h3.4L115.2,93.2z"/>
	<path class="st0" d="M122.1,82h2.5v15.7h-2.5V82z"/>
	<path class="st0" d="M128.6,86.4v11.4h-2.2V82h3.1l2.5,9.4V82h2.2v15.7h-2.5L128.6,86.4z"/>
	<path class="st0" d="M138.5,88.7h3.4v2.2h-3.4v4.6h4.3v2.2H136V82h6.7v2.2h-4.3V88.7z"/>
	<path class="st0" d="M146.7,88.7h3.4v2.2h-3.4v4.6h4.3v2.2h-6.7V82h6.7v2.2h-4.3V88.7z"/>
</g>
<g class="st2">
	<path class="st0" d="M75.5,112.5v0.8h-1v-0.9c0-0.9-0.4-1.4-1.1-1.4c-0.8,0-1.1,0.5-1.1,1.4v5.2c0,0.9,0.4,1.4,1.1,1.4
		c0.8,0,1.1-0.5,1.1-1.4v-2h-1v-1h2v2.9c0,1.5-0.7,2.5-2.2,2.5c-1.5,0-2.2-1-2.2-2.5v-5.1c0-1.5,0.7-2.5,2.2-2.5
		C74.8,110,75.5,111,75.5,112.5z"/>
</g>
<g class="st2">
	<path class="st0" d="M78.2,117.9l-0.4,2h-1l1.9-9.8h1.6l1.9,9.8H81l-0.4-2H78.2z M78.3,117h2.2l-1.1-5.7L78.3,117z"/>
	<path class="st0" d="M87.1,119.9h-1.1l-1.6-7.8v7.8h-1v-9.8H85l1.6,7.8l1.6-7.8h1.5v9.8h-1V112L87.1,119.9z"/>
	<path class="st0" d="M94.9,114.4v1h-2.4v3.5h2.9v1h-4v-9.8h4v1h-2.9v3.3H94.9z"/>
	<path class="st0" d="M104.1,112.5v0.9h-1v-0.9c0-0.9-0.3-1.4-1.1-1.4c-0.8,0-1.1,0.5-1.1,1.4v5.2c0,0.9,0.4,1.4,1.1,1.4
		c0.8,0,1.1-0.5,1.1-1.4v-1.3h1v1.2c0,1.5-0.7,2.5-2.2,2.5c-1.5,0-2.2-1-2.2-2.5v-5.1c0-1.5,0.7-2.5,2.2-2.5
		C103.4,110,104.1,111,104.1,112.5z"/>
	<path class="st0" d="M105.5,112.5c0-1.5,0.7-2.5,2.2-2.5c1.5,0,2.3,1,2.3,2.5v5.1c0,1.5-0.7,2.5-2.3,2.5c-1.5,0-2.2-1-2.2-2.5
		V112.5z M106.6,117.6c0,0.9,0.4,1.4,1.2,1.4c0.8,0,1.2-0.5,1.2-1.4v-5.2c0-0.9-0.4-1.4-1.2-1.4c-0.8,0-1.2,0.5-1.2,1.4V117.6z"/>
	<path class="st0" d="M112.6,119.9h-1v-9.8h1.4l2.3,7.1v-7.1h1v9.8h-1.1l-2.5-7.9V119.9z"/>
	<path class="st0" d="M118.9,119.9h-1v-9.8h1.4l2.3,7.1v-7.1h1v9.8h-1.1l-2.5-7.9V119.9z"/>
	<path class="st0" d="M127.7,114.4v1h-2.4v3.5h2.9v1h-4v-9.8h4v1h-2.9v3.3H127.7z"/>
	<path class="st0" d="M134.1,112.5v0.9h-1v-0.9c0-0.9-0.3-1.4-1.1-1.4c-0.8,0-1.1,0.5-1.1,1.4v5.2c0,0.9,0.4,1.4,1.1,1.4
		c0.8,0,1.1-0.5,1.1-1.4v-1.3h1v1.2c0,1.5-0.7,2.5-2.2,2.5c-1.5,0-2.2-1-2.2-2.5v-5.1c0-1.5,0.7-2.5,2.2-2.5
		C133.4,110,134.1,111,134.1,112.5z"/>
	<path class="st0" d="M137.1,119.9v-8.8h-1.8v-1h4.7v1h-1.8v8.8H137.1z"/>
	<path class="st0" d="M142.4,110.1v9.8h-1.1v-9.8H142.4z"/>
	<path class="st0" d="M144,112.5c0-1.5,0.7-2.5,2.2-2.5c1.5,0,2.3,1,2.3,2.5v5.1c0,1.5-0.7,2.5-2.3,2.5c-1.5,0-2.2-1-2.2-2.5V112.5z
		 M145,117.6c0,0.9,0.4,1.4,1.2,1.4c0.8,0,1.2-0.5,1.2-1.4v-5.2c0-0.9-0.4-1.4-1.2-1.4c-0.8,0-1.2,0.5-1.2,1.4V117.6z"/>
	<path class="st0" d="M151,119.9h-1v-9.8h1.4l2.3,7.1v-7.1h1v9.8h-1.1L151,112V119.9z"/>
	<path class="st0" d="M159.6,110.1h0.5l-0.3,1.2h0.4v1.4h-1.1v-1.3L159.6,110.1z"/>
	<path class="st0" d="M163.9,111.9c-0.4,0.2-0.8,0.4-1.4,0.4v-0.9c1.1,0,1.4-0.6,1.7-1.3h0.8v9.8h-1.1V111.9z"/>
	<path class="st0" d="M171.6,112.4v0.3c0,1-0.3,1.7-1.1,2c0.8,0.3,1.1,1.1,1.1,2.1v0.7c0,1.5-0.8,2.5-2.3,2.5
		c-1.5,0-2.3-0.9-2.3-2.5v-0.7c0-1,0.3-1.7,1.1-2.1c-0.8-0.3-1.1-1-1.1-2v-0.3c0-1.5,0.8-2.4,2.3-2.4S171.6,110.9,171.6,112.4z
		 M168.1,112.5v0.5c0,1,0.5,1.4,1.2,1.4s1.2-0.4,1.2-1.4v-0.5c0-1-0.5-1.5-1.2-1.5S168.1,111.4,168.1,112.5z M168.1,116.7v0.8
		c0,1,0.4,1.5,1.2,1.5c0.8,0,1.2-0.5,1.2-1.5v-0.8c0-1-0.4-1.4-1.2-1.4S168.1,115.8,168.1,116.7z"/>
</g>
<g class="st2">
	<path class="st0" d="M111,126.1c1.5,0,2.2,0.9,2.2,2.4v1.2c0,1.6-0.7,2.4-2.3,2.4h-1v3.9h-1.1v-9.8H111z M110.9,131.1
		c0.8,0,1.2-0.4,1.2-1.3v-1.3c0-0.9-0.3-1.3-1.1-1.3h-1.1v4H110.9z"/>
</g>
<g class="st2">
	<path class="st0" d="M115.5,133.9l-0.4,2h-1l1.9-9.8h1.6l1.9,9.8h-1.1l-0.4-2H115.5z M115.7,133h2.2l-1.1-5.7L115.7,133z"/>
	<path class="st0" d="M123.1,126.1c1.5,0,2.2,0.8,2.2,2.2v0.8c0,1.1-0.4,1.8-1.2,2c0.9,0.3,1.2,1,1.2,2v1.5c0,0.4,0,0.8,0.2,1.2
		h-1.1c-0.1-0.3-0.2-0.5-0.2-1.2v-1.5c0-1.1-0.5-1.5-1.4-1.5H122v4.2h-1.1v-9.8H123.1z M122.8,130.7c0.9,0,1.4-0.3,1.4-1.3v-0.9
		c0-0.9-0.3-1.3-1.1-1.3H122v3.6H122.8z"/>
	<path class="st0" d="M128,126.1v9.8H127v-9.8H128z"/>
	<path class="st0" d="M134,128.5v0.3h-1v-0.3c0-0.9-0.3-1.4-1.1-1.4c-0.8,0-1.1,0.5-1.1,1.4c0,2.2,3.3,2.4,3.3,5.2
		c0,1.5-0.7,2.5-2.2,2.5c-1.5,0-2.2-1-2.2-2.5V133h1v0.6c0,0.9,0.4,1.4,1.1,1.4s1.1-0.5,1.1-1.4c0-2.2-3.3-2.4-3.3-5.2
		c0-1.5,0.7-2.5,2.2-2.5C133.3,126,134,127,134,128.5z"/>
</g>
<circle class="st0" cx="122.8" cy="157.1" r="3.7"/>
</svg>
