<svg id="Layer_1" data-name="Layer 1" xmlns="http://www.w3.org/2000/svg" viewBox="0 0 95.32 45.36"><defs><style>.cls-1{fill:#fff;}.cls-2{fill:#231f20;}.cls-3{font-size:7px;font-family:ArialMT, Arial;}.cls-4{letter-spacing:-0.02em;}.cls-5{letter-spacing:0em;}</style></defs><title>Mature icon MOB</title><polygon class="cls-1" points="95.26 0 94.72 0 0.84 0 0.29 0 0.29 0.49 0.29 44.87 0.29 45.35 0.84 45.35 95.32 45.35 95.32 0 95.26 0"/><polygon class="cls-1" points="94.97 0.01 94.42 0.01 0.55 0.01 0 0.01 0 0.49 0 44.88 0 45.36 0.55 45.36 95.03 45.36 95.03 0.01 94.97 0.01"/><path class="cls-2" d="M94.72.49V44.87H.84V.49H94.72"/><rect class="cls-1" x="2.21" y="2.06" width="26.19" height="7.36"/><rect class="cls-1" x="2.2" y="11.03" width="26.21" height="27.05"/><polygon class="cls-1" points="2.21 43.27 2.21 39.68 7.47 39.68 7.47 40.52 4.32 40.52 4.32 41.03 6.98 41.03 6.98 41.87 4.32 41.87 4.32 42.43 7.59 42.43 7.59 43.27 2.21 43.27"/><path class="cls-1" d="M12.06,40.72a.38.38,0,0,0-.31-.24,1.73,1.73,0,0,0-.54-.07c-.47,0-.68.08-.68.21,0,.53,3.71.2,3.71,1.51,0,.83-1.24,1.24-3,1.24s-2.82-.56-2.86-1.21h2a.55.55,0,0,0,.35.29,2.22,2.22,0,0,0,.6.09c.53,0,.88-.1.88-.27,0-.54-3.71-.17-3.71-1.54,0-.76,1.18-1.14,2.8-1.14,1.79,0,2.6.5,2.76,1.13Z"/><path class="cls-1" d="M17.41,41.23h.83c.65,0,1-.09,1-.34s-.36-.37-.86-.37h-1Zm0,.79v1.25H15.3V39.68h3c2.15,0,2.86.32,2.86,1,0,.42-.33.76-1.08.88.68.14,1.09.23,1.09,1,0,.47,0,.63.22.63v.11H19.29a1.42,1.42,0,0,1-.11-.63c0-.47-.14-.62-1.13-.62Z"/><path class="cls-1" d="M24.61,40.52v.6h.88c.42,0,.73-.11.73-.32s-.42-.28-.86-.28Zm0,1.25v.66h.92c.53,0,.92-.06.92-.33s-.49-.33-1.17-.33Zm-2.11,1.5V39.68h3.08c1.45,0,2.61.19,2.61.9,0,.37-.43.64-.84.78.69.1,1.07.44,1.07.82,0,.81-1.1,1.09-2.78,1.09Z"/><rect class="cls-1" x="30" y="2.05" width="63.16" height="41.22"/><polygon class="cls-2" points="3.15 17.73 11.18 15.56 15.77 26.36 15.8 26.34 14.42 14.69 22.46 12.53 27.47 31.38 22.57 32.69 18.99 19.22 18.95 19.23 20.47 33.26 15.17 34.69 9.52 21.77 9.48 21.78 13.06 35.26 8.16 36.57 3.15 17.73"/><path class="cls-2" d="M2.91,7.82V3.66H4.09l.55,2.83h0l.58-2.83H6.38V7.82H5.67V4.61h0L5,7.82h-.7L3.64,4.61h0V7.82Z"/><path class="cls-2" d="M6.71,7.82l1-4.16h1l.95,4.16H8.84l-.2-.92h-1l-.2.92ZM8.13,4.46h0l-.33,1.8h.7Z"/><path class="cls-2" d="M11.76,3.66v.69h-.82V7.82h-.73V4.35H9.39V3.66Z"/><path class="cls-2" d="M14.48,3.66v3a1.89,1.89,0,0,1-.06.47,1.16,1.16,0,0,1-.2.4,1,1,0,0,1-.37.3,1.21,1.21,0,0,1-.57.11,1.13,1.13,0,0,1-.9-.34,1.39,1.39,0,0,1-.29-.94V3.66h.73V6.55A.85.85,0,0,0,13,7.1a.39.39,0,0,0,.32.17.37.37,0,0,0,.36-.19,1.07,1.07,0,0,0,.11-.53V3.66Z"/><path class="cls-2" d="M15.8,7.82h-.74V3.66h1.36a.74.74,0,0,1,.6.27,1.29,1.29,0,0,1,.22.82,1.38,1.38,0,0,1-.15.67.65.65,0,0,1-.5.35h0l.17,0a.41.41,0,0,1,.21.1.58.58,0,0,1,.18.24,1,1,0,0,1,.08.44v.28c0,.12,0,.24,0,.37l0,.35a.71.71,0,0,0,0,.22h-.72a1.05,1.05,0,0,1-.07-.4c0-.13,0-.27,0-.41V6.66a.84.84,0,0,0-.05-.29.43.43,0,0,0-.15-.2A.58.58,0,0,0,16,6.1H15.8Zm0-2.36h.32a.28.28,0,0,0,.18-.06.44.44,0,0,0,.12-.15.59.59,0,0,0,.06-.2,1.49,1.49,0,0,0,0-.21.67.67,0,0,0-.1-.42.35.35,0,0,0-.28-.12H15.8Z"/><path class="cls-2" d="M17.78,7.82V3.66H19.7V4.3H18.52v1h1.09V6H18.52V7.18h1.22v.64Z"/><path class="cls-2" d="M21.23,4.28A3.17,3.17,0,0,0,21.59,4a1.86,1.86,0,0,0,.3-.37h.65V7.82h-.73V4.6a2.18,2.18,0,0,1-.28.25l-.3.22Z"/><path class="cls-2" d="M25.13,4.43,24.3,7.82h-.76l.93-3.54H23.31V3.63h1.82Z"/><path class="cls-2" d="M26.27,4.46h.54V5.6h.82v.64h-.82V7.38h-.54V6.24h-.83V5.6h.83Z"/><text class="cls-3" transform="translate(34.93 12.56) scale(0.86 1)">Blood<tspan x="0" y="8.4">Strong Language</tspan><tspan x="0" y="16.8">Suggestive</tspan><tspan class="cls-4" x="34.63" y="16.8"> </tspan><tspan x="36.45" y="16.8">Themes</tspan><tspan class="cls-4"><tspan x="0" y="25.2">V</tspan><tspan class="cls-5" x="4.54" y="25.2">iolence</tspan></tspan></text></svg>