<?xml version="1.0" encoding="utf-8"?>
<!-- Generator: Adobe Illustrator 23.0.1, SVG Export Plug-In . SVG Version: 6.00 Build 0)  -->
<svg version="1.1" id="Layer_1" xmlns="http://www.w3.org/2000/svg" xmlns:xlink="http://www.w3.org/1999/xlink" x="0px" y="0px"
	 viewBox="0 0 248.3 164.8" style="enable-background:new 0 0 248.3 164.8;" xml:space="preserve">
<style type="text/css">
	.st0{fill:#DEDEDE;}
	.st1{fill:#59988F;}
	.st2{enable-background:new    ;}
	.st3{fill:#DEE2CB;}
</style>
<title>5</title>
<ellipse class="st0" cx="123.8" cy="86.8" rx="80.7" ry="1.2"/>
<path class="st1" d="M77.3,164.8l-7-2.3c8.7-10.5,19.7-13.2,28.9-6.9c-1.8,5.2-6.7,6.8-10.9,9.2H77.3z"/>
<path class="st1" d="M161.3,164.8c-4.9-2-9.9-3.7-12.2-9.1c8.4-6.7,18.6-4.4,29.2,6.6l-8.9,2.5H161.3z"/>
<path class="st1" d="M197.3,3.8c3.7,2.2,7.6,4.1,11.1,6.6c5.6,4.1,8.4,9.6,7.4,17.2c-6.8-0.2-12-2.9-14.7-8.7
	c-2.2-4.8-3.3-10-4.8-15.1L197.3,3.8z"/>
<path class="st1" d="M52.3,3.8c-1.3,4.4-2.3,9.1-4.1,13.3c-2.8,6.7-7.9,10.4-15.7,10.7c-1.2-7.7,1.9-13.2,7.7-17.4
	c3.5-2.5,7.4-4.4,11.1-6.6H52.3z"/>
<path class="st1" d="M199.5,101.7c7.6,12.6,7.6,22,0.2,29.8C191.2,126,191,114.8,199.5,101.7z"/>
<path class="st1" d="M48.8,131.8c-7.7-6.9-7.8-17.3-0.3-29.4C57.1,112.1,57.2,125,48.8,131.8z"/>
<path class="st1" d="M213,68.3c10.4,6.9,14.3,19.3,8.7,28C211.8,92,208.8,82.2,213,68.3z"/>
<path class="st1" d="M35.2,68.1c4.1,14.5,1.4,23.4-8.5,28.5C20.7,88.7,23.9,77.5,35.2,68.1z"/>
<path class="st1" d="M208.8,88.8c9.8,10.8,11.6,20,5.9,29C205.2,114.6,202.7,102.9,208.8,88.8z"/>
<path class="st1" d="M18,84.2C7.5,81.5,1.7,71.7,2.9,59C16.3,64.4,22.2,75.4,18,84.2z"/>
<path class="st1" d="M33.9,118.5c-6.1-9.4-4.4-18.8,5.3-29.2C45.6,100.5,43.6,112.3,33.9,118.5z"/>
<path class="st1" d="M174.2,129.3c-2.6,12.6-12.4,20.9-22.5,18.9C152.1,137.2,160.4,130.2,174.2,129.3z"/>
<path class="st1" d="M43,131c-9.2,6.1-22-0.8-27.9-9.6C28.8,117.3,38.9,120.8,43,131z"/>
<path class="st1" d="M221.7,47.2c-9.8,2-19.1-7.1-21.1-20.6C214.1,29.1,221.7,36.4,221.7,47.2z"/>
<path class="st1" d="M179.6,142.3c-6.5-8.6-1.4-20.5,9.2-28C193,125.9,189.4,137.1,179.6,142.3z"/>
<path class="st1" d="M68.7,142.5c-9.8-4.8-13.3-15.3-9.5-27.9C70.4,121.9,74.2,132.8,68.7,142.5z"/>
<path class="st1" d="M48,26.7c-4.4,15.6-10.7,21.7-21.1,20.8C24.3,38.2,35.2,28.7,48,26.7z"/>
<path class="st1" d="M230.9,62.2c-6.8-8.3-4.6-19.5,5.4-28.7C242.2,45,239.9,57.1,230.9,62.2z"/>
<path class="st1" d="M73.7,129.3c11.9,1,24.1,8,22.5,19.1C87.4,151.1,77.8,142.7,73.7,129.3z"/>
<path class="st1" d="M36,48.2c0.6,14.9-3.8,22.8-14.3,25.6C16.9,65.6,23.3,54,36,48.2z"/>
<path class="st1" d="M226.8,73.7C216,71,210.3,60.9,212.5,48.2C224.9,53.9,230.8,64.5,226.8,73.7z"/>
<path class="st1" d="M230,83.8c-3-10.6,1.4-18.1,15-25.2C247.6,69.7,240.6,81.8,230,83.8z"/>
<path class="st1" d="M0,83c13.9,0.1,22.3,6.2,24,17C15.3,103.8,5.5,96.9,0,83z"/>
<path class="st1" d="M29.4,116.9c-10.4,2.7-18.3-1.8-25.6-14.3C15.2,99.2,27.7,106.1,29.4,116.9z"/>
<path class="st1" d="M188.5,142.2c4.4-9.2,17.1-10.5,29.3-4C207.6,147.4,196.5,148.9,188.5,142.2z"/>
<path class="st1" d="M199.3,153.4c-13.5,6.1-24,4.5-29.6-4.2C177.6,142,186.9,143.2,199.3,153.4z"/>
<path class="st1" d="M78.4,149.4c-5.4,8.6-16.2,10.2-28.9,4.4C57,144.1,70.6,142,78.4,149.4z"/>
<path class="st1" d="M224.6,39.3c-8.4-7.1-8.6-17.5-0.6-29.4C232.2,20.2,232.4,32.4,224.6,39.3z"/>
<path class="st1" d="M248.3,82.7c-5.8,13.9-13.7,19.7-23.8,17.6C223.9,89.1,236.1,83,248.3,82.7z"/>
<path class="st1" d="M17.4,62.6c-9.2-5.9-11.2-17-5.7-29.2C21.9,43.1,24,53,17.4,62.6z"/>
<path class="st1" d="M24,9.8c8.2,12.9,7.9,23.1-0.5,29.7C15.2,33.2,17,20.5,24,9.8z"/>
<path class="st1" d="M244.2,102.2c-5.8,12.2-17.4,18.5-25.3,14.5C220.1,106.2,231,99.9,244.2,102.2z"/>
<path class="st1" d="M233.3,121c-8.3,11.1-18.9,14.7-27.9,9.8C208.4,121,217.9,117.6,233.3,121z"/>
<path class="st1" d="M30.3,138.3c13.6-6.3,22.8-5.1,29.4,3.7C52.9,149.3,41.1,147.9,30.3,138.3z"/>
<g class="st2">
	<path class="st3" d="M71.9,13c0-4.6,2.4-7.2,6.8-7.2c4.4,0,6.8,2.6,6.8,7.2v14.9c0,4.6-2.4,7.2-6.8,7.2c-4.4,0-6.8-2.6-6.8-7.2V13z
		 M76.4,28.2c0,2,0.9,2.8,2.3,2.8c1.4,0,2.3-0.8,2.3-2.8V12.7c0-2-0.9-2.8-2.3-2.8c-1.4,0-2.3,0.8-2.3,2.8V28.2z"/>
	<path class="st3" d="M93,18.9h5.8V23H93v11.8h-4.5V6.1h11.9v4.1H93V18.9z"/>
	<path class="st3" d="M107.1,18.9h5.8V23h-5.8v11.8h-4.5V6.1h11.9v4.1h-7.4V18.9z"/>
	<path class="st3" d="M116.7,6.1h4.5v28.7h-4.5V6.1z"/>
	<path class="st3" d="M137.5,24.1v3.8c0,4.6-2.3,7.2-6.7,7.2s-6.7-2.6-6.7-7.2V13c0-4.6,2.3-7.2,6.7-7.2s6.7,2.6,6.7,7.2v2.8h-4.3
		v-3.1c0-2-0.9-2.8-2.3-2.8c-1.4,0-2.3,0.8-2.3,2.8v15.5c0,2,0.9,2.8,2.3,2.8c1.4,0,2.3-0.7,2.3-2.8v-4.1H137.5z"/>
	<path class="st3" d="M140.3,6.1h4.5v28.7h-4.5V6.1z"/>
	<path class="st3" d="M162.6,34.8h-4.5l-0.8-5.2h-5.5l-0.8,5.2h-4.1l4.6-28.7h6.6L162.6,34.8z M152.4,25.7h4.3l-2.2-14.5L152.4,25.7
		z"/>
	<path class="st3" d="M164.7,6.1h4.5v24.6h7.4v4.1h-11.9V6.1z"/>
</g>
<g class="st2">
	<path class="st3" d="M65.9,40.8c4.4,0,6.6,2.6,6.6,7.2v0.9h-4.3v-1.2c0-2-0.8-2.8-2.3-2.8s-2.3,0.8-2.3,2.8c0,5.9,8.8,7,8.8,15.2
		c0,4.6-2.3,7.2-6.7,7.2c-4.4,0-6.7-2.6-6.7-7.2v-1.8h4.3v2c0,2,0.9,2.8,2.3,2.8c1.4,0,2.3-0.7,2.3-2.8c0-5.9-8.8-7-8.8-15.2
		C59.2,43.4,61.5,40.8,65.9,40.8z"/>
	<path class="st3" d="M79.6,53.2h6.2v4.1h-6.2v8.4h7.8v4.1H75.1V41.1h12.3v4.1h-7.8V53.2z"/>
	<path class="st3" d="M90.2,41.1h4.5v24.6h7.4v4.1H90.2V41.1z"/>
	<path class="st3" d="M108.6,53.2h6.2v4.1h-6.2v8.4h7.8v4.1h-12.3V41.1h12.3v4.1h-7.8V53.2z"/>
	<path class="st3" d="M132.2,59.1v3.8c0,4.6-2.3,7.2-6.7,7.2s-6.7-2.6-6.7-7.2V48c0-4.6,2.3-7.2,6.7-7.2s6.7,2.6,6.7,7.2v2.8H128
		v-3.1c0-2-0.9-2.8-2.3-2.8c-1.4,0-2.3,0.8-2.3,2.8v15.5c0,2,0.9,2.8,2.3,2.8c1.4,0,2.3-0.7,2.3-2.8v-4.1H132.2z"/>
	<path class="st3" d="M133.7,41.1h13.9v4.1h-4.7v24.6h-4.5V45.2h-4.7V41.1z"/>
	<path class="st3" d="M149.6,41.1h4.5v28.7h-4.5V41.1z"/>
	<path class="st3" d="M157,48c0-4.6,2.4-7.2,6.8-7.2s6.8,2.6,6.8,7.2v14.9c0,4.6-2.4,7.2-6.8,7.2s-6.8-2.6-6.8-7.2V48z M161.5,63.2
		c0,2,0.9,2.8,2.3,2.8s2.3-0.8,2.3-2.8V47.7c0-2-0.9-2.8-2.3-2.8s-2.3,0.8-2.3,2.8V63.2z"/>
	<path class="st3" d="M177.6,49v20.8h-4.1V41.1h5.7l4.6,17.2V41.1h4v28.7h-4.6L177.6,49z"/>
</g>
<g class="st2">
	<path class="st3" d="M91,104.1v9.8H90v-9.8H91z"/>
	<path class="st3" d="M93.7,113.9h-1v-9.8h1.4l2.3,7.1v-7.1h1v9.8h-1.1l-2.5-7.9V113.9z"/>
	<path class="st3" d="M101.3,104.1c1.5,0,2.2,0.9,2.2,2.4v4.9c0,1.5-0.7,2.4-2.2,2.4H99v-9.8H101.3z M101.3,112.9
		c0.8,0,1.2-0.5,1.2-1.4v-5c0-0.9-0.4-1.4-1.2-1.4h-1.2v7.8H101.3z"/>
	<path class="st3" d="M106.2,104.1v9.8h-1.1v-9.8H106.2z"/>
	<path class="st3" d="M111.4,108.4v1H109v3.5h2.9v1h-4v-9.8h4v1H109v3.3H111.4z"/>
	<path class="st3" d="M117.8,106.5v0.9h-1v-0.9c0-0.9-0.4-1.4-1.1-1.4c-0.8,0-1.1,0.5-1.1,1.4v5.2c0,0.9,0.4,1.4,1.1,1.4
		c0.8,0,1.1-0.5,1.1-1.4v-1.3h1v1.2c0,1.5-0.7,2.5-2.2,2.5c-1.5,0-2.2-1-2.2-2.5v-5.1c0-1.5,0.7-2.5,2.2-2.5
		C117.1,104,117.8,105,117.8,106.5z"/>
	<path class="st3" d="M120.5,111.9l-0.4,2h-1l1.9-9.8h1.6l1.9,9.8h-1.1l-0.4-2H120.5z M120.6,111h2.2l-1.1-5.7L120.6,111z"/>
	<path class="st3" d="M128.1,104.1c1.5,0,2.2,0.9,2.2,2.4v4.9c0,1.5-0.7,2.4-2.2,2.4h-2.3v-9.8H128.1z M128.1,112.9
		c0.8,0,1.2-0.5,1.2-1.4v-5c0-0.9-0.4-1.4-1.2-1.4h-1.2v7.8H128.1z"/>
	<path class="st3" d="M135.4,108.4v1H133v3.5h2.9v1h-4v-9.8h4v1H133v3.3H135.4z"/>
	<path class="st3" d="M140.8,104.1h0.5l-0.4,1.2h0.4v1.4h-1.1v-1.3L140.8,104.1z"/>
	<path class="st3" d="M145.1,105.9c-0.4,0.2-0.8,0.4-1.4,0.4v-0.9c1.1,0,1.4-0.6,1.7-1.3h0.8v9.8h-1.1V105.9z"/>
	<path class="st3" d="M152.9,106.4v0.3c0,1-0.4,1.7-1.1,2c0.8,0.3,1.1,1.1,1.1,2.1v0.7c0,1.5-0.8,2.5-2.3,2.5
		c-1.5,0-2.3-0.9-2.3-2.5v-0.7c0-1,0.3-1.7,1.1-2.1c-0.8-0.3-1.1-1-1.1-2v-0.3c0-1.5,0.8-2.4,2.3-2.4S152.9,104.9,152.9,106.4z
		 M149.3,106.5v0.5c0,1,0.5,1.4,1.2,1.4s1.2-0.4,1.2-1.4v-0.5c0-1-0.5-1.5-1.2-1.5S149.3,105.4,149.3,106.5z M149.3,110.7v0.8
		c0,1,0.4,1.5,1.2,1.5s1.2-0.5,1.2-1.5v-0.8c0-1-0.4-1.4-1.2-1.4S149.3,109.8,149.3,110.7z"/>
</g>
<g class="st2">
	<path class="st3" d="M92.4,122.5v0.3h-1v-0.3c0-0.9-0.3-1.4-1.1-1.4c-0.8,0-1.1,0.5-1.1,1.4c0,2.2,3.3,2.4,3.3,5.2
		c0,1.5-0.7,2.5-2.2,2.5c-1.5,0-2.2-1-2.2-2.5V127h1v0.6c0,0.9,0.4,1.4,1.1,1.4c0.8,0,1.1-0.5,1.1-1.4c0-2.2-3.3-2.4-3.3-5.2
		c0-1.5,0.7-2.5,2.2-2.5C91.7,120,92.4,121,92.4,122.5z"/>
	<path class="st3" d="M95,127.9l-0.4,2h-1l1.9-9.8h1.6l1.9,9.8h-1.1l-0.4-2H95z M95.2,127h2.2l-1.1-5.7L95.2,127z"/>
	<path class="st3" d="M101.3,129.9h-1v-9.8h1.4l2.3,7.1v-7.1h1v9.8h-1.1l-2.5-7.9V129.9z"/>
</g>
<g class="st2">
	<path class="st3" d="M108.1,129.9v-8.8h-1.8v-1h4.7v1h-1.8v8.8H108.1z"/>
</g>
<g class="st2">
	<path class="st3" d="M112.8,127.9l-0.4,2h-1l1.9-9.8h1.6l1.9,9.8h-1.1l-0.4-2H112.8z M113,127h2.2l-1.1-5.7L113,127z"/>
	<path class="st3" d="M124.5,129.9h-1.1l-1.6-7.8v7.8h-1v-9.8h1.5l1.6,7.8l1.6-7.8h1.5v9.8h-1V122L124.5,129.9z"/>
	<path class="st3" d="M128.7,122.5c0-1.5,0.7-2.5,2.2-2.5c1.5,0,2.3,1,2.3,2.5v5.1c0,1.5-0.7,2.5-2.3,2.5c-1.5,0-2.2-1-2.2-2.5
		V122.5z M129.8,127.6c0,0.9,0.4,1.4,1.2,1.4c0.8,0,1.2-0.5,1.2-1.4v-5.2c0-0.9-0.4-1.4-1.2-1.4c-0.8,0-1.2,0.5-1.2,1.4V127.6z"/>
	<path class="st3" d="M135.8,129.9h-1v-9.8h1.4l2.3,7.1v-7.1h1v9.8h-1.1l-2.5-7.9V129.9z"/>
	<path class="st3" d="M142.2,120.1v9.8h-1.1v-9.8H142.2z"/>
	<path class="st3" d="M148.2,122.5v0.9h-1v-0.9c0-0.9-0.4-1.4-1.1-1.4c-0.8,0-1.1,0.5-1.1,1.4v5.2c0,0.9,0.4,1.4,1.1,1.4
		c0.8,0,1.1-0.5,1.1-1.4v-1.3h1v1.2c0,1.5-0.7,2.5-2.2,2.5c-1.5,0-2.2-1-2.2-2.5v-5.1c0-1.5,0.7-2.5,2.2-2.5
		C147.5,120,148.2,121,148.2,122.5z"/>
	<path class="st3" d="M150.9,127.9l-0.4,2h-1l1.9-9.8h1.6l1.9,9.8h-1.1l-0.4-2H150.9z M151,127h2.2l-1.1-5.7L151,127z"/>
</g>
<circle class="st3" cx="123.7" cy="153.8" r="3.7"/>
</svg>
